<svg xmlns="http://www.w3.org/2000/svg" viewBox="-30 -55 465 465" style="">
   <!-- 0 0 404.7 354 -->

  <g stroke="#5aa8c5" fill="none" stroke-width="6" stroke-linecap="round" stroke-linejoin="round" stroke-miterlimit="10">
    <!-- HI -->
    <path data-duration="10" d="M324.6,61.2c16.6,0,29.5-12.9,29.5-29.5c0-16.6-12.9-29.5-29.5-29.5c-16.6,0-29.5,12.9-29.5,29.5C295.1,48.4,308,61.2,324.6,61.2z" class="bWTbTRZo_0"></path>
    <path data-duration="130" d="M366.2,204.2c-9.8,0-15-5.6-15-15.1V77.2h-85v28h19.5c9.8,0,8.5,2.1,8.5,11.6v72.4c0,9.5,0.5,15.1-9.3,15.1H277h-20.7c-8.5,0-14.2-4.1-14.2-12.9V52.4c0-8.5,5.7-12.3,14.2-12.3h18.8v-28h-127v28h18.1c8.5,0,9.9,2.1,9.9,8.9v56.1h-75V53.4c0-11.5,8.6-13.3,17-13.3h11v-28H2.2v28h26c8.5,0,12,2.1,12,7.9v142.2c0,8.5-3.6,13.9-12,13.9h-21v33h122v-33h-11c-8.5,0-17-4.1-17-12.2v-57.8h75v58.4c0,9.1-1.4,11.6-9.9,11.6h-18.1v33h122.9h5.9h102.2v-33H366.2z" class="bWTbTRZo_1"></path>

    <path data-async="" data-delay="20" d="M358.8,82.8c11.1-4.2,18.8-14.7,18.8-27.5c0-8.5-3.4-16-8.9-21.3" class="bWTbTRZo_2"></path>
    <path data-async="" d="M124.2,105.7V77c0-11.5,9.1-13.8,17.5-13.8h10.5V44.7" class="bWTbTRZo_3"></path>
    <path data-async="" d="M147.9,40.2L171.2,63.2L175.7,63.2" class="bWTbTRZo_4"></path>
    <path data-async="" d="M295.1,32.1L275.2,12.2" class="bWTbTRZo_5"></path>
    <path data-async="" d="M266.2,204.7V75.9c0-8.5,5.2-12.8,13.7-12.8h18.3V44.7" class="bWTbTRZo_6"></path>
    <path data-async="" d="M265.9,105.2L289.2,129.2L293.7,129.2" class="bWTbTRZo_7"></path>
    <path data-async="" d="M374.2,204.7L374.2,94.2L358.8,82.8L351.2,77.2" class="bWTbTRZo_8"></path>
    <path data-async="" d="M148.2,237.2L171.2,261.2L294.6,261.2L300.5,261.2L402.2,261.2L402.2,228.2L379.2,204.2" class="bWTbTRZo_9"></path>
    <path data-async="" d="M124.2,204.7L124.2,157.2L175.7,157.2" class="bWTbTRZo_10"></path>
    <path data-async="" d="M147.7,228.2L129.2,204.2" class="bWTbTRZo_11"></path>
    <path data-async="" d="M7.2,237.3L30.2,261.2L152.2,261.2L152.2,241.7" class="bWTbTRZo_12"></path>
    <path data-async="" d="M1.9,40.2L26,63.2L39.7,63.2" class="bWTbTRZo_13"></path>
    <path data-async="" d="M129.2,12.2L148.2,33.2" class="bWTbTRZo_14"></path>
    <path data-async="" d="M303.9,53L328.1,77.2" class="bWTbTRZo_15"></path>

    <path d="M345.1,10.5L368.7,34" class="bWTbTRZo_16"></path>

    <!-- there -->
    <path data-delay="30" data-duration="60" stroke-linecap="round" stroke-linejoin="round" d="M76.8,337.3c0,0,1.9,12.2,13.1,12.2c22.1,0,23.8-1.8,59-66.4c-19.7,35.7-36.4,66.2-19.3,66.2c15.2,0,22.9-14.2,28.3-23.7c3.3-0.5,24-3.2,35-25.5c4-8.1,4.1-17.8-8.1-15.2c-5.6,1.2-13.1,14.8-15.7,19.2c-7.6,12.7-22.4,45.2-22.4,45.2s10.3-22.4,21.5-22.4c15.5,0-9.4,22.4,4.7,22.4c4.9,0,11.7-11.4,16.6-20.9c7.5,4.7,19.7,1.7,24.5-8.1c10.1-20.4-14.4-12.8-24.5,8.1c-5.5,11.3-2.2,21.1,11.2,21.1c16.4,0,26.1-28.3,30.5-37.5c9.9,2.5,14,2.5,22.7-1.1c-3.5,5.1-24,38.1-8.3,38.1c6.7,0,11.7-11.4,16.6-20.9c7.5,4.7,19.7,1.7,24.5-8.1c10.1-20.4-14.4-12.8-24.5,8.1c-5.5,11.3-2.2,21.1,11.2,21.1c16.4,0,20.6-4,24.7-10.5" class="bWTbTRZo_17"></path>
    <path stroke-linecap="round" stroke-linejoin="round" d="M157.3,300.8c3.8-2.3-29,0.8-35.6,3.2" class="bWTbTRZo_18"></path>
  </g>
<style data-made-with="vivus-instant">.bWTbTRZo_0{stroke-dasharray:186 188;stroke-dashoffset:187;animation:bWTbTRZo_draw_0 11400ms linear 0ms infinite,bWTbTRZo_fade 11400ms linear 0ms infinite;}.bWTbTRZo_1{stroke-dasharray:2216 2218;stroke-dashoffset:2217;animation:bWTbTRZo_draw_1 11400ms linear 0ms infinite,bWTbTRZo_fade 11400ms linear 0ms infinite;}.bWTbTRZo_2{stroke-dasharray:60 62;stroke-dashoffset:61;animation:bWTbTRZo_draw_2 11400ms linear 0ms infinite,bWTbTRZo_fade 11400ms linear 0ms infinite;}.bWTbTRZo_3{stroke-dasharray:84 86;stroke-dashoffset:85;animation:bWTbTRZo_draw_3 11400ms linear 0ms infinite,bWTbTRZo_fade 11400ms linear 0ms infinite;}.bWTbTRZo_4{stroke-dasharray:38 40;stroke-dashoffset:39;animation:bWTbTRZo_draw_4 11400ms linear 0ms infinite,bWTbTRZo_fade 11400ms linear 0ms infinite;}.bWTbTRZo_5{stroke-dasharray:29 31;stroke-dashoffset:30;animation:bWTbTRZo_draw_5 11400ms linear 0ms infinite,bWTbTRZo_fade 11400ms linear 0ms infinite;}.bWTbTRZo_6{stroke-dasharray:187 189;stroke-dashoffset:188;animation:bWTbTRZo_draw_6 11400ms linear 0ms infinite,bWTbTRZo_fade 11400ms linear 0ms infinite;}.bWTbTRZo_7{stroke-dasharray:38 40;stroke-dashoffset:39;animation:bWTbTRZo_draw_7 11400ms linear 0ms infinite,bWTbTRZo_fade 11400ms linear 0ms infinite;}.bWTbTRZo_8{stroke-dasharray:140 142;stroke-dashoffset:141;animation:bWTbTRZo_draw_8 11400ms linear 0ms infinite,bWTbTRZo_fade 11400ms linear 0ms infinite;}.bWTbTRZo_9{stroke-dasharray:331 333;stroke-dashoffset:332;animation:bWTbTRZo_draw_9 11400ms linear 0ms infinite,bWTbTRZo_fade 11400ms linear 0ms infinite;}.bWTbTRZo_10{stroke-dasharray:99 101;stroke-dashoffset:100;animation:bWTbTRZo_draw_10 11400ms linear 0ms infinite,bWTbTRZo_fade 11400ms linear 0ms infinite;}.bWTbTRZo_11{stroke-dasharray:31 33;stroke-dashoffset:32;animation:bWTbTRZo_draw_11 11400ms linear 0ms infinite,bWTbTRZo_fade 11400ms linear 0ms infinite;}.bWTbTRZo_12{stroke-dasharray:175 177;stroke-dashoffset:176;animation:bWTbTRZo_draw_12 11400ms linear 0ms infinite,bWTbTRZo_fade 11400ms linear 0ms infinite;}.bWTbTRZo_13{stroke-dasharray:48 50;stroke-dashoffset:49;animation:bWTbTRZo_draw_13 11400ms linear 0ms infinite,bWTbTRZo_fade 11400ms linear 0ms infinite;}.bWTbTRZo_14{stroke-dasharray:29 31;stroke-dashoffset:30;animation:bWTbTRZo_draw_14 11400ms linear 0ms infinite,bWTbTRZo_fade 11400ms linear 0ms infinite;}.bWTbTRZo_15{stroke-dasharray:35 37;stroke-dashoffset:36;animation:bWTbTRZo_draw_15 11400ms linear 0ms infinite,bWTbTRZo_fade 11400ms linear 0ms infinite;}.bWTbTRZo_16{stroke-dasharray:34 36;stroke-dashoffset:35;animation:bWTbTRZo_draw_16 11400ms linear 0ms infinite,bWTbTRZo_fade 11400ms linear 0ms infinite;}.bWTbTRZo_17{stroke-dasharray:851 853;stroke-dashoffset:852;animation:bWTbTRZo_draw_17 11400ms linear 0ms infinite,bWTbTRZo_fade 11400ms linear 0ms infinite;}.bWTbTRZo_18{stroke-dasharray:37 39;stroke-dashoffset:38;animation:bWTbTRZo_draw_18 11400ms linear 0ms infinite,bWTbTRZo_fade 11400ms linear 0ms infinite;}@keyframes bWTbTRZo_draw{100%{stroke-dashoffset:0;}}@keyframes bWTbTRZo_fade{0%{stroke-opacity:1;}98.24561403508773%{stroke-opacity:1;}100%{stroke-opacity:0;}}@keyframes bWTbTRZo_draw_0{1.7543859649122806%{stroke-dashoffset: 187}5.269172502715971%{ stroke-dashoffset: 0;}100%{ stroke-dashoffset: 0;}}@keyframes bWTbTRZo_draw_1{5.269172502715971%{stroke-dashoffset: 2217}46.93912840812123%{ stroke-dashoffset: 0;}100%{ stroke-dashoffset: 0;}}@keyframes bWTbTRZo_draw_2{46.93912840812123%{stroke-dashoffset: 61}48.08566305414275%{ stroke-dashoffset: 0;}100%{ stroke-dashoffset: 0;}}@keyframes bWTbTRZo_draw_3{48.08566305414275%{stroke-dashoffset: 85}49.683293298598976%{ stroke-dashoffset: 0;}100%{ stroke-dashoffset: 0;}}@keyframes bWTbTRZo_draw_4{49.68329329859897%{stroke-dashoffset: 39}50.416323646055346%{ stroke-dashoffset: 0;}100%{ stroke-dashoffset: 0;}}@keyframes bWTbTRZo_draw_5{50.416323646055346%{stroke-dashoffset: 30}50.98019314409872%{ stroke-dashoffset: 0;}100%{ stroke-dashoffset: 0;}}@keyframes bWTbTRZo_draw_6{50.98019314409873%{stroke-dashoffset: 188}54.5137753318372%{ stroke-dashoffset: 0;}100%{ stroke-dashoffset: 0;}}@keyframes bWTbTRZo_draw_7{54.5137753318372%{stroke-dashoffset: 39}55.24680567929359%{ stroke-dashoffset: 0;}100%{ stroke-dashoffset: 0;}}@keyframes bWTbTRZo_draw_8{55.24680567929359%{stroke-dashoffset: 141}57.89699232009744%{ stroke-dashoffset: 0;}100%{ stroke-dashoffset: 0;}}@keyframes bWTbTRZo_draw_9{57.89699232009744%{stroke-dashoffset: 332}64.1371480984441%{ stroke-dashoffset: 0;}100%{ stroke-dashoffset: 0;}}@keyframes bWTbTRZo_draw_10{64.1371480984441%{stroke-dashoffset: 100}66.01671309192201%{ stroke-dashoffset: 0;}100%{ stroke-dashoffset: 0;}}@keyframes bWTbTRZo_draw_11{66.01671309192201%{stroke-dashoffset: 32}66.61817388983494%{ stroke-dashoffset: 0;}100%{ stroke-dashoffset: 0;}}@keyframes bWTbTRZo_draw_12{66.61817388983494%{stroke-dashoffset: 176}69.92620827835606%{ stroke-dashoffset: 0;}100%{ stroke-dashoffset: 0;}}@keyframes bWTbTRZo_draw_13{69.92620827835606%{stroke-dashoffset: 49}70.84719512516024%{ stroke-dashoffset: 0;}100%{ stroke-dashoffset: 0;}}@keyframes bWTbTRZo_draw_14{70.84719512516024%{stroke-dashoffset: 30}71.4110646232036%{ stroke-dashoffset: 0;}100%{ stroke-dashoffset: 0;}}@keyframes bWTbTRZo_draw_15{71.41106462320361%{stroke-dashoffset: 36}72.08770802085566%{ stroke-dashoffset: 0;}100%{ stroke-dashoffset: 0;}}@keyframes bWTbTRZo_draw_16{72.08770802085564%{stroke-dashoffset: 35}72.74555576857291%{ stroke-dashoffset: 0;}100%{ stroke-dashoffset: 0;}}@keyframes bWTbTRZo_draw_17{72.74555576857293%{stroke-dashoffset: 852}88.75944951300471%{ stroke-dashoffset: 0;}100%{ stroke-dashoffset: 0;}}@keyframes bWTbTRZo_draw_18{88.75944951300471%{stroke-dashoffset: 38}89.47368421052633%{ stroke-dashoffset: 0;}100%{ stroke-dashoffset: 0;}}</style></svg>