<!--?xml version="1.0" encoding="utf-8"?-->
<!-- 0 0 654 132 -->
<svg version="1.1" id="Layer_1" xmlns="http://www.w3.org/2000/svg" xmlns:xlink="http://www.w3.org/1999/xlink" viewBox="-23 -22 700 175" xml:space="preserve">
<style type="text/css">
	.st0{fill:none;stroke:#5aa8c5;stroke-width:13;stroke-linecap:round;stroke-linejoin:round;stroke-miterlimit:10;}
</style>
<g>
	<path class="st0 ORKjTxuT_0" d="M17.2,59.5c9.7,1.6,20-1,27.8-7s13-15.2,14-25c0.2-2.2,0.2-4.4-0.5-6.5c-0.7-2.1-2.3-3.9-4.4-4.5
		c-2.4-0.6-4.9,0.5-6.7,2.2c-1.7,1.7-2.8,4-3.8,6.2c-3.6,8-6.8,16.2-10,24.4c-5.3,13.6-10.7,27.2-16,40.8c0.2-0.1,0.4-0.3,0.6-0.4"></path>
	<path class="st0 ORKjTxuT_1" d="M27.6,65.6c3.1-2.1,6.3-4.4,10.1-4.8c3.7-0.4,8,1.7,8.7,5.4c0.5,2.8-1.3,5.7-3.7,7.3s-5.3,2.2-8.1,2.8
		c2.9-1.3,6.9,0.6,7.6,3.7c0.5,1.9-0.1,4,0.2,5.9c0.7,4.1,5.5,6.5,9.5,5.5c4-1,7-4.5,8.4-8.3c1.4-3.9,1.6-8,1.7-12.2
		c7.5-0.1,14.9-3.2,20.3-8.4s8.6-12.6,8.9-20.1c0.1-2.8-0.3-5.8-2.3-7.7c-2.2-2.1-5.8-2.1-8.5-0.8c-2.7,1.3-4.8,3.7-6.5,6.2
		c-7.2,9.9-11.5,21.9-12.3,34.2c-0.3,4.9,0.1,10.3,3.4,13.9c3.1,3.4,8.2,4.5,12.6,3.4s8.3-4,11.2-7.5c2.9-3.5,5.1-7.6,7.2-11.7"></path>
	<path class="st0 ORKjTxuT_2" d="M96.4,72.5c7.3-0.4,14.4-3.6,19.6-8.8c5.2-5.2,8.3-12.3,8.7-19.6c0.2-2.8-0.2-5.8-2.2-7.8
		c-2.3-2.2-6-2.2-8.9-0.7c-2.8,1.5-4.8,4.1-6.6,6.7c-5.2,7.9-8.8,16.8-10.7,26.1c-1.3,6.9-1.4,14.8,3.4,19.9
		c4.1,4.4,10.9,5.4,16.5,3.6c5.7-1.8,10.3-6.1,13.5-11.1c3.3-5,5.4-10.6,7.4-16.2c3.3-8.9,6.6-17.8,9.9-26.7
		c-9.3,24.8-19.6,49.2-31,73.1c0.6-0.2,1.1-0.3,1.7-0.5"></path>
	<path class="st0 ORKjTxuT_3" d="M143.2,50.4c2.7-2.6,7.1-3.6,10.5-1.8c3.3,1.8,5,5.8,4.9,9.5c-0.1,3.8-1.7,7.3-3.6,10.6
		c-1.9,3.3-4,6.4-5.3,9.9c-1.2,3.1-1.5,7,1,9.2c1.7,1.5,4.3,1.6,6.5,0.8c2.1-0.8,3.9-2.3,5.7-3.7"></path>
</g>
<g>
	<path class="st0 ORKjTxuT_4" d="M187.6,39.8c7.8,4.6,17.1,6.5,26.1,5.2c2.6-0.4,5.3-1.1,7.2-2.9s2.5-5.1,0.8-7.1c-1.2-1.3-3.1-1.8-4.9-1.5
		s-3.4,1.2-4.9,2.2c-14.3,9.1-23.8,25.2-25,42.1c-0.2,2.7-0.2,5.5,0.9,8c2.4,5.4,9.5,7.5,15.2,5.8c5.7-1.7,10.1-6.2,13.7-10.9
		c7.4-9.8,12.4-21.5,14.2-33.7c0.3-2,0.5-4.1,0-6.1c-0.5-2-1.9-3.8-3.9-4.3c-1.9-0.5-4,0.4-5.4,1.9c-1.3,1.5-2,3.5-2.4,5.4
		c-0.6,3.6-0.2,7.6,2.3,10.2c2.8,2.8,7.5,3,11.2,1.4s6.4-4.7,9-7.7c2.5-3.1,5-6.3,8.2-8.6c1.7-1.2,4-2.1,5.7-1
		c1.3,0.8,1.8,2.4,1.7,3.9c-0.1,1.5-0.7,2.9-1.4,4.2c-6.6,14.5-13.3,29-19.9,43.5"></path>
	<path class="st0 ORKjTxuT_5" d="M256.2,45.4c2.1-2.5,4.3-5.2,7.4-6.4s7.1-0.7,8.8,2.2c1.5,2.7,0.4,6.1-0.8,8.9c-4,9.7-8,19.3-11.9,29
		c-1.3,3.2-2.5,7.2-0.2,9.8c1.9,2.1,5.3,2.1,7.8,0.7c2.5-1.4,4.2-3.7,5.8-6"></path>
</g>
<g>
	<path class="st0 ORKjTxuT_6" d="M333.9,44.8c-0.2-3.6-3.5-6.5-7-7.1c-3.5-0.6-7.2,0.8-10,3.1c-2.8,2.3-4.8,5.3-6.7,8.3
		c-5.3,8.9-9.4,18.5-12,28.5c-0.9,3.3-1.4,7.3,0.9,9.7c2.2,2.4,6.3,2.1,9,0.3c2.7-1.8,4.4-4.7,6-7.6C325.3,60.4,335,40,343.5,19
		c-7.7,19.9-15.3,39.7-23,59.6c-1.5,3.9-2.8,8.9,0.3,11.7c1.8,1.7,4.7,1.8,7.1,0.9s4.2-2.7,5.9-4.6c12.1-13.6,16.3-32.3,20-50.1
		c6.2,5.3,16,5.9,22.8,1.4c-7.1,12.6-13.6,25.6-19.4,38.8c-1.1,2.5-2.2,5.1-2.4,7.8s0.7,5.7,2.8,7.4c2,1.5,4.8,1.7,7.2,0.9
		c2.4-0.7,4.5-2.3,6.3-4c6.8-6.2,10.6-13.6,12.4-22.6c5.9,1.5,13.4-0.7,18.4-4.3s8.2-9.4,8.6-15.5c0.3-4.3-1.6-9.5-5.8-10.3
		c-3.9-0.8-7.4,2.5-9.8,5.8c-7.7,10.4-12.3,23-13.3,35.9c-0.2,3.1-0.3,6.4,0.6,9.4c0.8,3,2.7,3.9,5.4,5.5c3.7,2.1,8.5,1.6,12.3-0.5
		s13.8-7.7,16.8-16.7"></path>
	<path class="st0 ORKjTxuT_7" d="M449.5,45.5c1-4,0.6-5.8-2.1-7.7c-2.6-1.9-6.4-1.7-9.3-0.2s-5.1,4.1-7,6.7c-7.9,10.6-13.2,23.1-15.1,36.2
		c-0.6,3.7-0.5,8.3,2.6,10.4c3.3,2.3,7.9,0.4,10.8-2.3c5.1-4.6,7.7-11.2,10.3-17.6c4.4-11.2,8.8-22.3,13.3-33.5
		c-5.5,14-11,27.9-16.5,41.9c-0.8,1.9-1.5,3.9-1.7,6c-0.2,2.1,0.2,4.3,1.6,5.8c2.5,2.7,7.2,2.3,10.1,0.1c2.9-2.2,4.6-5.7,6.1-9.1
		c6-13.2,12-26.3,18-39.5c0.8-1.7,1.6-3.4,2.9-4.7s3.2-2.2,5-1.7c1.9,0.5,3.2,2.4,3.6,4.4s0,4-0.5,5.9c-3.4,15.6-8.4,30.8-14.8,45.4
		"></path>
	<path class="st0 ORKjTxuT_8" d="M480.5,50.3c2.7-4.8,6.7-8.7,11.5-11.3c1.8-1,4.1-1.7,5.8-0.6c2,1.3,1.9,4.2,1.5,6.6
		c-2.7,16.5-7.4,32.6-13.9,48"></path>
	<path class="st0 ORKjTxuT_9" d="M499.1,48.1c0.4-2.6,4.2-7.7,6.4-8.6s6-2,9,0c1.8,1.2,2.2,5,1.6,7.1c-3.7,13.6-7.4,27.2-11,40.8
		c-0.4,1.5-0.8,3.3,0.2,4.5c1.3,1.6,7.9,1,9.7-0.1c4.3-2.5,7.7-6.4,10.2-10.8c2.5-4.3,4.3-9,6-13.7c3.8-10.4,6.7-18.8,10.5-29.1
		c-6.2,15.3-9.2,25.3-14.2,39.5c-0.9,2.4-1.3,5-1.3,7.6s0.9,5.2,2.7,7c1.9,1.8,2.5,1.3,3.1,1.1"></path>
	<path class="st0 ORKjTxuT_10" d="M532.4,93.7c5-1.1,7.3-4.5,10.4-8.6c3.1-4.1,5.2-8.9,7.3-13.6c4.2-9.6,8.4-19.2,12.7-28.8
		c0.7-1.5,1.4-3.1,2.5-4.3c1.1-1.2,2.8-2.1,4.4-1.8c2,0.3,3.5,2.3,3.9,4.3s-0.1,4.1-0.5,6.1c-3.6,15.5-8.6,30.6-13.5,45.7
		c5.4-16.8,12.2-33.2,20.2-49c0.9-1.8,1.9-3.7,3.4-5.1s3.8-2.2,5.7-1.5c2.1,0.8,3.3,3.1,3.5,5.3c0.1,2.2-0.6,4.4-1.3,6.5
		c-4,12-8,24-12.1,36c-0.8,2.5-1.6,5.5,0,7.6c1.6,2,4.8,2.1,7,0.8c2.2-1.3,7.6-0.7,10.6-11.7"></path>
	<path class="st0 ORKjTxuT_11" d="M628.7,43.6c-0.4-3.3-3.5-5.9-6.8-6.2c-3.3-0.4-6.6,1.2-9,3.4c-2.4,2.3-4.1,5.2-5.6,8.2
		c-5.1,10.1-8.5,21.1-10,32.3c-0.5,3.7-0.6,8,2.2,10.6c2.7,2.5,7.3,2,10.3-0.1c3-2.1,4.9-5.5,6.5-8.9c6.9-14,11.7-29,16.4-43.9
		c-5.6,18.4-12,36.5-19.2,54.3c-2.5,6.1-5.1,12.2-9.3,17.2c-4.3,5-10.4,8.7-17,8.5c-1.8-0.1-3.7-0.5-5.1-1.5
		c-1.5-1.1-2.5-2.9-2.2-4.7c0.2-1.7,1.6-3,3.2-3.9c9.6-5.3,38.6,8.7,47.6-12.3"></path>
</g>
<style data-made-with="vivus-instant">.ORKjTxuT_0{stroke-dasharray:158 160;stroke-dashoffset:159;animation:ORKjTxuT_draw_0 5300ms linear 0ms infinite,ORKjTxuT_fade 5300ms linear 0ms infinite;}.ORKjTxuT_1{stroke-dasharray:257 259;stroke-dashoffset:258;animation:ORKjTxuT_draw_1 5300ms linear 0ms infinite,ORKjTxuT_fade 5300ms linear 0ms infinite;}.ORKjTxuT_2{stroke-dasharray:284 286;stroke-dashoffset:285;animation:ORKjTxuT_draw_2 5300ms linear 0ms infinite,ORKjTxuT_fade 5300ms linear 0ms infinite;}.ORKjTxuT_3{stroke-dasharray:69 71;stroke-dashoffset:70;animation:ORKjTxuT_draw_3 5300ms linear 0ms infinite,ORKjTxuT_fade 5300ms linear 0ms infinite;}.ORKjTxuT_4{stroke-dasharray:319 321;stroke-dashoffset:320;animation:ORKjTxuT_draw_4 5300ms linear 0ms infinite,ORKjTxuT_fade 5300ms linear 0ms infinite;}.ORKjTxuT_5{stroke-dasharray:88 90;stroke-dashoffset:89;animation:ORKjTxuT_draw_5 5300ms linear 0ms infinite,ORKjTxuT_fade 5300ms linear 0ms infinite;}.ORKjTxuT_6{stroke-dasharray:589 591;stroke-dashoffset:590;animation:ORKjTxuT_draw_6 5300ms linear 0ms infinite,ORKjTxuT_fade 5300ms linear 0ms infinite;}.ORKjTxuT_7{stroke-dasharray:342 344;stroke-dashoffset:343;animation:ORKjTxuT_draw_7 5300ms linear 0ms infinite,ORKjTxuT_fade 5300ms linear 0ms infinite;}.ORKjTxuT_8{stroke-dasharray:80 82;stroke-dashoffset:81;animation:ORKjTxuT_draw_8 5300ms linear 0ms infinite,ORKjTxuT_fade 5300ms linear 0ms infinite;}.ORKjTxuT_9{stroke-dasharray:207 209;stroke-dashoffset:208;animation:ORKjTxuT_draw_9 5300ms linear 0ms infinite,ORKjTxuT_fade 5300ms linear 0ms infinite;}.ORKjTxuT_10{stroke-dasharray:280 282;stroke-dashoffset:281;animation:ORKjTxuT_draw_10 5300ms linear 0ms infinite,ORKjTxuT_fade 5300ms linear 0ms infinite;}.ORKjTxuT_11{stroke-dasharray:310 312;stroke-dashoffset:311;animation:ORKjTxuT_draw_11 5300ms linear 0ms infinite,ORKjTxuT_fade 5300ms linear 0ms infinite;}@keyframes ORKjTxuT_draw{100%{stroke-dashoffset:0;}}@keyframes ORKjTxuT_fade{0%{stroke-opacity:1;}96.22641509433963%{stroke-opacity:1;}100%{stroke-opacity:0;}}@keyframes ORKjTxuT_draw_0{1.8867924528301887%{stroke-dashoffset: 159}4.891800800075597%{ stroke-dashoffset: 0;}100%{ stroke-dashoffset: 0;}}@keyframes ORKjTxuT_draw_1{4.891800800075597%{stroke-dashoffset: 258}9.767852080511544%{ stroke-dashoffset: 0;}100%{ stroke-dashoffset: 0;}}@keyframes ORKjTxuT_draw_2{9.767852080511542%{stroke-dashoffset: 285}15.154187797272181%{ stroke-dashoffset: 0;}100%{ stroke-dashoffset: 0;}}@keyframes ORKjTxuT_draw_3{15.154187797272185%{stroke-dashoffset: 70}16.477147447002867%{ stroke-dashoffset: 0;}100%{ stroke-dashoffset: 0;}}@keyframes ORKjTxuT_draw_4{16.477147447002867%{stroke-dashoffset: 320}22.524962988628847%{ stroke-dashoffset: 0;}100%{ stroke-dashoffset: 0;}}@keyframes ORKjTxuT_draw_5{22.524962988628847%{stroke-dashoffset: 89}24.20701168614357%{ stroke-dashoffset: 0;}100%{ stroke-dashoffset: 0;}}@keyframes ORKjTxuT_draw_6{24.20701168614357%{stroke-dashoffset: 590}35.35767159101648%{ stroke-dashoffset: 0;}100%{ stroke-dashoffset: 0;}}@keyframes ORKjTxuT_draw_7{35.35767159101648%{stroke-dashoffset: 343}41.84017387469682%{ stroke-dashoffset: 0;}100%{ stroke-dashoffset: 0;}}@keyframes ORKjTxuT_draw_8{41.84017387469682%{stroke-dashoffset: 81}43.3710271836709%{ stroke-dashoffset: 0;}100%{ stroke-dashoffset: 0;}}@keyframes ORKjTxuT_draw_9{43.3710271836709%{stroke-dashoffset: 208}47.302107285727786%{ stroke-dashoffset: 0;}100%{ stroke-dashoffset: 0;}}@keyframes ORKjTxuT_draw_10{47.302107285727786%{stroke-dashoffset: 281}52.61284530821809%{ stroke-dashoffset: 0;}100%{ stroke-dashoffset: 0;}}@keyframes ORKjTxuT_draw_11{52.61284530821809%{stroke-dashoffset: 311}58.490566037735846%{ stroke-dashoffset: 0;}100%{ stroke-dashoffset: 0;}}</style></svg>
