<!--?xml version="1.0" encoding="utf-8"?-->
<!-- Generator: Adobe Illustrator 23.0.6, SVG Export Plug-In . SVG Version: 6.00 Build 0)  -->
<svg version="1.1" id="polaroid" xmlns="http://www.w3.org/2000/svg" xmlns:xlink="http://www.w3.org/1999/xlink" x="0px" y="0px" viewBox="0 0 220 220" style="" xml:space="preserve">
<style type="text/css">
	.st0{fill:none;stroke:#5aa8c5;stroke-width:3;stroke-linecap:round;stroke-linejoin:round;stroke-miterlimit:10;}
</style>
<g>
	<path class="st0 lVSfoOoj_0" d="M116.7,134.7c-0.8,2.5-3.6,4.2-6.3,3.9l-88-11.8c-2.7-0.4-4.3-2.7-3.5-5.2l25.2-81.4c0.8-2.5,3.6-4.2,6.3-3.9
		l88,11.8c2.7,0.4,4.3,2.7,3.5,5.2L116.7,134.7z"></path>
	<path class="st0 lVSfoOoj_1" d="M111,153.2c-0.8,2.5-3.6,4.2-6.3,3.9l-88-11.8c-2.7-0.4-4.3-2.7-3.5-5.2l2.9-9.4c0.8-2.5,3.6-4.2,6.3-3.9
		l88,11.8c2.7,0.4,4.3,2.7,3.5,5.2L111,153.2z"></path>
	<path class="st0 lVSfoOoj_2" d="M113.4,158.2L164.8,185.3"></path>
	<path class="st0 lVSfoOoj_3" d="M119.9,142.7L165,166.9"></path>
	<path class="st0 lVSfoOoj_4" d="M19.1,150.2l47.9,22c0,0,98.1,12.4,97.7,13.1c-0.3,0.7,5.4-16.2,5.4-16.2l-2.6-96.8c-1.1-7.6-2.5-11.8-8.6-15
		l-12.6-6.6"></path>
	<path class="st0 lVSfoOoj_5" d="M171.6,68.1l30.7,16.1c0,0,5.3,2.3,4.5,6.5l-3.2,10.5c-0.6,2.6-2.9,5-8.2,2.8l-9.2-4.7l-11.8,56.4"></path>
	<path class="st0 lVSfoOoj_6" d="M193.1,79.5c0,0,5.3,2.3,4.5,6.5l-3.2,10.5c-0.6,2.6-2.9,5-8.2,2.8"></path>
	<path class="st0 lVSfoOoj_7" d="M97.2,86.1c-3.9,12.6-18.1,21.4-31.8,19.6S43.8,92.1,47.8,79.5c3.9-12.6,18.1-21.4,31.8-19.6
		C93.2,61.8,101.1,73.5,97.2,86.1z"></path>
	<path class="st0 lVSfoOoj_8" d="M102.7,86.9c-4.8,15.5-22.2,26.2-38.9,24c-16.7-2.2-26.4-16.6-21.6-32.1c4.8-15.5,22.2-26.2,38.9-24
		C97.8,57,107.5,71.4,102.7,86.9z"></path>
	<path class="st0 lVSfoOoj_9" d="M89,56.9c16.2,7.4,19.4,11,22,20.1c1.3,4.4,1.3,9.4-0.3,14.5c-4.8,15.5-22.2,26.2-38.9,24
		c-8.7-1.2-21.2-8-25.6-14.1"></path>
	<path class="st0 lVSfoOoj_10" d="M52.6,80.2C55.7,70,67.2,63,78.1,64.4"></path>
	<path class="st0 lVSfoOoj_11" d="M113.8,59.3c-0.6,1.8,0.6,3.5,2.6,3.8l12.8,1.7c2,0.3,4.1-1,4.6-2.9l1.7-5.4c0.6-1.8-0.6-3.6-2.6-3.8L120.1,51
		c-2-0.3-4.1,1-4.6,2.9L113.8,59.3z"></path>
	<path class="st0 lVSfoOoj_12" d="M21.1,135.8c-0.3,1,0.3,1.9,1.3,2l81.4,10.9c1,0.1,2.1-0.5,2.4-1.5l0,0c0.3-1-0.3-1.9-1.3-2l-81.4-10.9
		C22.5,134.2,21.4,134.8,21.1,135.8L21.1,135.8z"></path>
	<path class="st0 lVSfoOoj_13" d="M57.6,131.5L61.6,118.3"></path>
	<path class="st0 lVSfoOoj_14" d="M63.4,132.3L67,120.1"></path>
	<path class="st0 lVSfoOoj_15" d="M69.2,133.1L72.7,121.3"></path>
	<path class="st0 lVSfoOoj_16" d="M75.1,133.8L79,120.6"></path>
	<path class="st0 lVSfoOoj_17" d="M82.9,50L85.5,41.1"></path>
	<path class="st0 lVSfoOoj_18" d="M88.5,51.3L91.3,41.9"></path>
	<path class="st0 lVSfoOoj_19" d="M93.8,53.7L97.2,42.6"></path>
	<path class="st0 lVSfoOoj_20" d="M99.1,56.1L102.9,43.5"></path>
</g>
<style data-made-with="vivus-instant">.lVSfoOoj_0{stroke-dasharray:379 381;stroke-dashoffset:380;animation:lVSfoOoj_draw_0 9200ms linear 0ms infinite,lVSfoOoj_fade 9200ms linear 0ms infinite;}.lVSfoOoj_1{stroke-dasharray:228 230;stroke-dashoffset:229;animation:lVSfoOoj_draw_1 9200ms linear 0ms infinite,lVSfoOoj_fade 9200ms linear 0ms infinite;}.lVSfoOoj_2{stroke-dasharray:59 61;stroke-dashoffset:60;animation:lVSfoOoj_draw_2 9200ms linear 0ms infinite,lVSfoOoj_fade 9200ms linear 0ms infinite;}.lVSfoOoj_3{stroke-dasharray:52 54;stroke-dashoffset:53;animation:lVSfoOoj_draw_3 9200ms linear 0ms infinite,lVSfoOoj_fade 9200ms linear 0ms infinite;}.lVSfoOoj_4{stroke-dasharray:298 300;stroke-dashoffset:299;animation:lVSfoOoj_draw_4 9200ms linear 0ms infinite,lVSfoOoj_fade 9200ms linear 0ms infinite;}.lVSfoOoj_5{stroke-dasharray:133 135;stroke-dashoffset:134;animation:lVSfoOoj_draw_5 9200ms linear 0ms infinite,lVSfoOoj_fade 9200ms linear 0ms infinite;}.lVSfoOoj_6{stroke-dasharray:30 32;stroke-dashoffset:31;animation:lVSfoOoj_draw_6 9200ms linear 0ms infinite,lVSfoOoj_fade 9200ms linear 0ms infinite;}.lVSfoOoj_7{stroke-dasharray:154 156;stroke-dashoffset:155;animation:lVSfoOoj_draw_7 9200ms linear 0ms infinite,lVSfoOoj_fade 9200ms linear 0ms infinite;}.lVSfoOoj_8{stroke-dasharray:188 190;stroke-dashoffset:189;animation:lVSfoOoj_draw_8 9200ms linear 0ms infinite,lVSfoOoj_fade 9200ms linear 0ms infinite;}.lVSfoOoj_9{stroke-dasharray:126 128;stroke-dashoffset:127;animation:lVSfoOoj_draw_9 9200ms linear 0ms infinite,lVSfoOoj_fade 9200ms linear 0ms infinite;}.lVSfoOoj_10{stroke-dasharray:33 35;stroke-dashoffset:34;animation:lVSfoOoj_draw_10 9200ms linear 0ms infinite,lVSfoOoj_fade 9200ms linear 0ms infinite;}.lVSfoOoj_11{stroke-dasharray:60 62;stroke-dashoffset:61;animation:lVSfoOoj_draw_11 9200ms linear 0ms infinite,lVSfoOoj_fade 9200ms linear 0ms infinite;}.lVSfoOoj_12{stroke-dasharray:176 178;stroke-dashoffset:177;animation:lVSfoOoj_draw_12 9200ms linear 0ms infinite,lVSfoOoj_fade 9200ms linear 0ms infinite;}.lVSfoOoj_13{stroke-dasharray:14 16;stroke-dashoffset:15;animation:lVSfoOoj_draw_13 9200ms linear 0ms infinite,lVSfoOoj_fade 9200ms linear 0ms infinite;}.lVSfoOoj_14{stroke-dasharray:13 15;stroke-dashoffset:14;animation:lVSfoOoj_draw_14 9200ms linear 0ms infinite,lVSfoOoj_fade 9200ms linear 0ms infinite;}.lVSfoOoj_15{stroke-dasharray:13 15;stroke-dashoffset:14;animation:lVSfoOoj_draw_15 9200ms linear 0ms infinite,lVSfoOoj_fade 9200ms linear 0ms infinite;}.lVSfoOoj_16{stroke-dasharray:14 16;stroke-dashoffset:15;animation:lVSfoOoj_draw_16 9200ms linear 0ms infinite,lVSfoOoj_fade 9200ms linear 0ms infinite;}.lVSfoOoj_17{stroke-dasharray:10 12;stroke-dashoffset:11;animation:lVSfoOoj_draw_17 9200ms linear 0ms infinite,lVSfoOoj_fade 9200ms linear 0ms infinite;}.lVSfoOoj_18{stroke-dasharray:10 12;stroke-dashoffset:11;animation:lVSfoOoj_draw_18 9200ms linear 0ms infinite,lVSfoOoj_fade 9200ms linear 0ms infinite;}.lVSfoOoj_19{stroke-dasharray:12 14;stroke-dashoffset:13;animation:lVSfoOoj_draw_19 9200ms linear 0ms infinite,lVSfoOoj_fade 9200ms linear 0ms infinite;}.lVSfoOoj_20{stroke-dasharray:14 16;stroke-dashoffset:15;animation:lVSfoOoj_draw_20 9200ms linear 0ms infinite,lVSfoOoj_fade 9200ms linear 0ms infinite;}@keyframes lVSfoOoj_draw{100%{stroke-dashoffset:0;}}@keyframes lVSfoOoj_fade{0%{stroke-opacity:1;}97.82608695652173%{stroke-opacity:1;}100%{stroke-opacity:0;}}@keyframes lVSfoOoj_draw_0{2.1739130434782608%{stroke-dashoffset: 380}18.395551855883546%{ stroke-dashoffset: 0;}100%{ stroke-dashoffset: 0;}}@keyframes lVSfoOoj_draw_1{18.395551855883546%{stroke-dashoffset: 229}28.171223666517253%{ stroke-dashoffset: 0;}100%{ stroke-dashoffset: 0;}}@keyframes lVSfoOoj_draw_2{28.171223666517253%{stroke-dashoffset: 60}30.732535057949672%{ stroke-dashoffset: 0;}100%{ stroke-dashoffset: 0;}}@keyframes lVSfoOoj_draw_3{30.732535057949672%{stroke-dashoffset: 53}32.9950267870483%{ stroke-dashoffset: 0;}100%{ stroke-dashoffset: 0;}}@keyframes lVSfoOoj_draw_4{32.9950267870483%{stroke-dashoffset: 299}45.75889522101983%{ stroke-dashoffset: 0;}100%{ stroke-dashoffset: 0;}}@keyframes lVSfoOoj_draw_5{45.75889522101983%{stroke-dashoffset: 134}51.47915732855222%{ stroke-dashoffset: 0;}100%{ stroke-dashoffset: 0;}}@keyframes lVSfoOoj_draw_6{51.47915732855222%{stroke-dashoffset: 31}52.80250154745897%{ stroke-dashoffset: 0;}100%{ stroke-dashoffset: 0;}}@keyframes lVSfoOoj_draw_7{52.80250154745897%{stroke-dashoffset: 155}59.41922264199271%{ stroke-dashoffset: 0;}100%{ stroke-dashoffset: 0;}}@keyframes lVSfoOoj_draw_8{59.4192226419927%{stroke-dashoffset: 189}67.4873535250048%{ stroke-dashoffset: 0;}100%{ stroke-dashoffset: 0;}}@keyframes lVSfoOoj_draw_9{67.4873535250048%{stroke-dashoffset: 127}72.90879597020341%{ stroke-dashoffset: 0;}100%{ stroke-dashoffset: 0;}}@keyframes lVSfoOoj_draw_10{72.90879597020341%{stroke-dashoffset: 34}74.36020575868177%{ stroke-dashoffset: 0;}100%{ stroke-dashoffset: 0;}}@keyframes lVSfoOoj_draw_11{74.36020575868179%{stroke-dashoffset: 61}76.96420567330475%{ stroke-dashoffset: 0;}100%{ stroke-dashoffset: 0;}}@keyframes lVSfoOoj_draw_12{76.96420567330473%{stroke-dashoffset: 177}84.52007427803035%{ stroke-dashoffset: 0;}100%{ stroke-dashoffset: 0;}}@keyframes lVSfoOoj_draw_13{84.52007427803035%{stroke-dashoffset: 15}85.16040212588845%{ stroke-dashoffset: 0;}100%{ stroke-dashoffset: 0;}}@keyframes lVSfoOoj_draw_14{85.16040212588845%{stroke-dashoffset: 14}85.75804145055602%{ stroke-dashoffset: 0;}100%{ stroke-dashoffset: 0;}}@keyframes lVSfoOoj_draw_15{85.75804145055602%{stroke-dashoffset: 14}86.35568077522359%{ stroke-dashoffset: 0;}100%{ stroke-dashoffset: 0;}}@keyframes lVSfoOoj_draw_16{86.35568077522358%{stroke-dashoffset: 15}86.99600862308168%{ stroke-dashoffset: 0;}100%{ stroke-dashoffset: 0;}}@keyframes lVSfoOoj_draw_17{86.99600862308169%{stroke-dashoffset: 11}87.46558237817763%{ stroke-dashoffset: 0;}100%{ stroke-dashoffset: 0;}}@keyframes lVSfoOoj_draw_18{87.46558237817763%{stroke-dashoffset: 11}87.93515613327357%{ stroke-dashoffset: 0;}100%{ stroke-dashoffset: 0;}}@keyframes lVSfoOoj_draw_19{87.93515613327358%{stroke-dashoffset: 13}88.4901069347506%{ stroke-dashoffset: 0;}100%{ stroke-dashoffset: 0;}}@keyframes lVSfoOoj_draw_20{88.4901069347506%{stroke-dashoffset: 15}89.13043478260869%{ stroke-dashoffset: 0;}100%{ stroke-dashoffset: 0;}}</style></svg>
