<!--?xml version="1.0" encoding="utf-8"?-->
<!-- Generator: Adobe Illustrator 16.0.0, SVG Export Plug-In . SVG Version: 6.00 Build 0)  -->
<!-- Original viewbox 0 0 220 75 -->

<svg version="1.1" xmlns="http://www.w3.org/2000/svg" xmlns:xlink="http://www.w3.org/1999/xlink" viewBox="55 10 105 35">
<path fill="none" stroke="#5aa8c5" stroke-width="15" stroke-linecap="round" stroke-linejoin="round" d="M36.63,12.47 c-0.3,6.47-6.54,14.16-13.31,14.74c-6.2,0.54-7.83-7-1.8-7.5c4.71-0.39,7.31,5.47,11.53,6.59c6.79,1.81,14.42-2.83,17.12-8.9 c-4.71,7.01-12.21,31.55,8.53,29.04c5.72-0.69,6.45-30.54,15.54-31.21c-6.43,0.58-10.46,16.79-2.26,16.08 c5.3-0.46,9.22-4.96,11.17-9.17c-2.64,7.95-9.58,22,0.83,21.07c8.11-0.72,9.02-22.93,17.52-23.95c0.47,3.56-3.29,21.27-0.27,22.03 c7.58,1.92,17.96-15.01,18.83-19.4c0.52-2.62-2.96-4.5-2.71-0.92c0.22,3.15,3.86,2.67,6.04,1.89c2.77-0.99,7.78-3.16,10.3-7.53 c-2.52,4.38-12.21,24.32-0.14,22.07c9.16-1.71,17.32-24.09,17.32-24.09s-7.95,22.96-2.69,22.33c11.58-1.4,18.65-18.33,19.29-24.63 c0.28,5.81,12.43,16.98,8.84,28.85c-3.97,13.13-15.56,12.03-16.89,6.88c-1.27-4.92,2.75-12.33,20.17-5.08 c19.13,7.96,28.42-13.72,22.58-21.67" class="hNkMDpeQ_0"></path>
<path fill="none" stroke="#FFFFFF" stroke-width="10" stroke-linecap="round" stroke-linejoin="round" d="M35.63,11.47 c-0.3,6.47-6.54,14.16-13.31,14.74c-6.2,0.54-7.83-7-1.8-7.5c4.71-0.39,7.31,5.47,11.53,6.59c6.79,1.81,14.42-2.83,17.12-8.9 c-4.71,7.01-12.21,31.55,8.53,29.04c5.72-0.69,6.45-30.54,15.54-31.21c-6.43,0.58-10.46,16.79-2.26,16.08 c5.3-0.46,9.22-4.96,11.17-9.17c-2.64,7.95-9.58,22,0.83,21.07c8.11-0.72,9.02-22.93,17.52-23.95c0.47,3.56-3.29,21.27-0.27,22.03 c7.58,1.92,17.96-15.01,18.83-19.4c0.52-2.62-2.96-4.5-2.71-0.92c0.22,3.15,3.86,2.67,6.04,1.89c2.77-0.99,7.78-3.16,10.3-7.53 c-2.52,4.38-12.21,24.32-0.14,22.07c9.16-1.71,17.32-24.09,17.32-24.09s-7.95,22.96-2.69,22.33c11.58-1.4,18.65-18.33,19.29-24.63 c0.28,5.81,12.43,16.98,8.84,28.85c-3.97,13.13-15.56,12.03-16.89,6.88c-1.27-4.92,2.75-12.33,20.17-5.08 c19.13,7.96,28.42-13.72,22.58-21.67" class="hNkMDpeQ_1"></path>
<path fill="none" stroke="#C1272D" stroke-width="5" stroke-linecap="round" stroke-linejoin="round" d="M34.63,10.47 c-0.3,6.47-6.54,14.16-13.31,14.74c-6.2,0.54-7.83-7-1.8-7.5c4.71-0.39,7.31,5.47,11.53,6.59c6.79,1.81,14.42-2.83,17.12-8.9 c-4.71,7.01-12.21,31.55,8.53,29.04c5.72-0.69,6.45-30.54,15.54-31.21c-6.43,0.58-10.46,16.79-2.26,16.08 c5.3-0.46,9.22-4.96,11.17-9.17c-2.64,7.95-9.58,22,0.83,21.07c8.11-0.72,9.02-22.93,17.52-23.95c0.47,3.56-3.29,21.27-0.27,22.03 c7.58,1.92,17.96-15.01,18.83-19.4c0.52-2.62-2.96-4.5-2.71-0.92c0.22,3.15,3.86,2.67,6.04,1.89c2.77-0.99,7.78-3.16,10.3-7.53 c-2.52,4.38-12.21,24.32-0.14,22.07c9.16-1.71,17.32-24.09,17.32-24.09s-7.95,22.96-2.69,22.33c11.58-1.4,18.65-18.33,19.29-24.63 c0.28,5.81,12.43,16.98,8.84,28.85c-3.97,13.13-15.56,12.03-16.89,6.88c-1.27-4.92,2.75-12.33,20.17-5.08 c19.13,7.96,28.42-13.72,22.58-21.67" class="hNkMDpeQ_2"></path>
<style>

.hNkMDpeQ_0{stroke-dasharray:554 556;stroke-dashoffset:555;animation:hNkMDpeQ_draw_0 8000ms linear 0ms infinite;}
.hNkMDpeQ_1{stroke-dasharray:554 556;stroke-dashoffset:555;animation:hNkMDpeQ_draw_1 8000ms linear 0ms infinite;}
.hNkMDpeQ_2{stroke-dasharray:554 556;stroke-dashoffset:555;animation:hNkMDpeQ_draw_2 8000ms linear 0ms infinite;}

@keyframes hNkMDpeQ_draw_0{
    4%{stroke-dashoffset: 555}
    30%{ stroke-dashoffset: 0;}
    74%{ stroke-dashoffset: 0;}
    100%{ stroke-dashoffset: -555;}
    100%{ stroke-dashoffset: -555;}
}
@keyframes hNkMDpeQ_draw_1{
    5%{stroke-dashoffset: 555}
    31%{ stroke-dashoffset: 0;}
    73%{ stroke-dashoffset: 0;}
    99%{ stroke-dashoffset: -555;}
    100%{ stroke-dashoffset: -555;}

}
@keyframes hNkMDpeQ_draw_2{
    6%{stroke-dashoffset: 555}
    32%{ stroke-dashoffset: 0;}
    72% { stroke-dashoffset: 0;}
    98%{ stroke-dashoffset: -555;}
    100%{ stroke-dashoffset: -555;}
}

</style></svg>
