<?xml version="1.0" encoding="utf-8"?>
<!-- Generator: Adobe Illustrator 23.0.6, SVG Export Plug-In . SVG Version: 6.00 Build 0)  -->
<svg version="1.1" id="Calque_1" xmlns="http://www.w3.org/2000/svg" xmlns:xlink="http://www.w3.org/1999/xlink" x="0px" y="0px"
	 viewBox="0 0 600 300" style="enable-background:new 0 0 600 300;" xml:space="preserve">
<style type="text/css">
	.st0{opacity:0.5;}
	.st1{fill:#FFFFFF;}
	.st2{opacity:0.2;}
	.st3{fill:none;stroke:#999999;stroke-width:14;stroke-linecap:round;}
	.st4{fill:none;stroke:#CCCCCC;stroke-width:14;stroke-linecap:round;}
	.st5{fill:none;stroke:#FFFFFF;stroke-width:14;stroke-linecap:round;}
	.st6{fill:#999999;}
	.st7{enable-background:new    ;}
	.st8{fill:#14171B;}
</style>
<g id="dots" class="st0">
	<circle class="st1" cx="11.3" cy="15.5" r="2"/>
	<circle class="st1" cx="11.3" cy="50.5" r="2"/>
	<circle class="st1" cx="11.3" cy="85.5" r="2"/>
	<circle class="st1" cx="11.3" cy="120.5" r="2"/>
	<circle class="st1" cx="11.3" cy="155.5" r="2"/>
	<circle class="st1" cx="11.3" cy="190.5" r="2"/>
	<circle class="st1" cx="11.3" cy="225.5" r="2"/>
	<circle class="st1" cx="11.3" cy="260.5" r="2"/>
	<circle class="st1" cx="11.3" cy="295.5" r="2"/>
	<circle class="st1" cx="46.3" cy="15.5" r="2"/>
	<circle class="st1" cx="46.3" cy="50.5" r="2"/>
	<circle class="st1" cx="46.3" cy="85.5" r="2"/>
	<circle class="st1" cx="46.3" cy="120.5" r="2"/>
	<circle class="st1" cx="46.3" cy="155.5" r="2"/>
	<circle class="st1" cx="46.3" cy="190.5" r="2"/>
	<circle class="st1" cx="46.3" cy="225.5" r="2"/>
	<circle class="st1" cx="46.3" cy="260.5" r="2"/>
	<circle class="st1" cx="46.3" cy="295.5" r="2"/>
	<circle class="st1" cx="81.3" cy="15.5" r="2"/>
	<circle class="st1" cx="81.3" cy="50.5" r="2"/>
	<circle class="st1" cx="81.3" cy="85.5" r="2"/>
	<circle class="st1" cx="81.3" cy="120.5" r="2"/>
	<circle class="st1" cx="81.3" cy="155.5" r="2"/>
	<circle class="st1" cx="81.3" cy="190.5" r="2"/>
	<circle class="st1" cx="81.3" cy="225.5" r="2"/>
	<circle class="st1" cx="81.3" cy="260.5" r="2"/>
	<circle class="st1" cx="81.3" cy="295.5" r="2"/>
	<circle class="st1" cx="116.3" cy="15.5" r="2"/>
	<circle class="st1" cx="116.3" cy="50.5" r="2"/>
	<circle class="st1" cx="116.3" cy="85.5" r="2"/>
	<circle class="st1" cx="116.3" cy="120.5" r="2"/>
	<circle class="st1" cx="116.3" cy="155.5" r="2"/>
	<circle class="st1" cx="116.3" cy="190.5" r="2"/>
	<circle class="st1" cx="116.3" cy="225.5" r="2"/>
	<circle class="st1" cx="116.3" cy="260.5" r="2"/>
	<circle class="st1" cx="116.3" cy="295.5" r="2"/>
	<circle class="st1" cx="151.3" cy="15.5" r="2"/>
	<circle class="st1" cx="151.3" cy="50.5" r="2"/>
	<circle class="st1" cx="151.3" cy="85.5" r="2"/>
	<circle class="st1" cx="151.3" cy="120.5" r="2"/>
	<circle class="st1" cx="151.3" cy="155.5" r="2"/>
	<circle class="st1" cx="151.3" cy="190.5" r="2"/>
	<circle class="st1" cx="151.3" cy="225.5" r="2"/>
	<circle class="st1" cx="151.3" cy="260.5" r="2"/>
	<circle class="st1" cx="151.3" cy="295.5" r="2"/>
	<circle class="st1" cx="186.3" cy="15.5" r="2"/>
	<circle class="st1" cx="186.3" cy="50.5" r="2"/>
	<circle class="st1" cx="186.3" cy="85.5" r="2"/>
	<circle class="st1" cx="186.3" cy="120.5" r="2"/>
	<circle class="st1" cx="186.3" cy="155.5" r="2"/>
	<circle class="st1" cx="186.3" cy="190.5" r="2"/>
	<circle class="st1" cx="186.3" cy="225.5" r="2"/>
	<circle class="st1" cx="186.3" cy="260.5" r="2"/>
	<circle class="st1" cx="186.3" cy="295.5" r="2"/>
	<circle class="st1" cx="221.3" cy="15.5" r="2"/>
	<circle class="st1" cx="221.3" cy="50.5" r="2"/>
	<circle class="st1" cx="221.3" cy="85.5" r="2"/>
	<circle class="st1" cx="221.3" cy="120.5" r="2"/>
	<circle class="st1" cx="221.3" cy="155.5" r="2"/>
	<circle class="st1" cx="221.3" cy="190.5" r="2"/>
	<circle class="st1" cx="221.3" cy="225.5" r="2"/>
	<circle class="st1" cx="221.3" cy="260.5" r="2"/>
	<circle class="st1" cx="221.3" cy="295.5" r="2"/>
	<circle class="st1" cx="256.3" cy="15.5" r="2"/>
	<circle class="st1" cx="256.3" cy="50.5" r="2"/>
	<circle class="st1" cx="256.3" cy="85.5" r="2"/>
	<circle class="st1" cx="256.3" cy="120.5" r="2"/>
	<circle class="st1" cx="256.3" cy="155.5" r="2"/>
	<circle class="st1" cx="256.3" cy="190.5" r="2"/>
	<circle class="st1" cx="256.3" cy="225.5" r="2"/>
	<circle class="st1" cx="256.3" cy="260.5" r="2"/>
	<circle class="st1" cx="256.3" cy="295.5" r="2"/>
	<circle class="st1" cx="291.3" cy="15.5" r="2"/>
	<circle class="st1" cx="291.3" cy="50.5" r="2"/>
	<circle class="st1" cx="291.3" cy="85.5" r="2"/>
	<circle class="st1" cx="291.3" cy="120.5" r="2"/>
	<circle class="st1" cx="291.3" cy="155.5" r="2"/>
	<circle class="st1" cx="291.3" cy="190.5" r="2"/>
	<circle class="st1" cx="291.3" cy="225.5" r="2"/>
	<circle class="st1" cx="291.3" cy="260.5" r="2"/>
	<circle class="st1" cx="291.3" cy="295.5" r="2"/>
	<circle class="st1" cx="326.3" cy="15.5" r="2"/>
	<circle class="st1" cx="326.3" cy="50.5" r="2"/>
	<circle class="st1" cx="326.3" cy="85.5" r="2"/>
	<circle class="st1" cx="326.3" cy="120.5" r="2"/>
	<circle class="st1" cx="326.3" cy="155.5" r="2"/>
	<circle class="st1" cx="326.3" cy="190.5" r="2"/>
	<circle class="st1" cx="326.3" cy="225.5" r="2"/>
	<circle class="st1" cx="326.3" cy="260.5" r="2"/>
	<circle class="st1" cx="326.3" cy="295.5" r="2"/>
	<circle class="st1" cx="361.3" cy="15.5" r="2"/>
	<circle class="st1" cx="361.3" cy="50.5" r="2"/>
	<circle class="st1" cx="361.3" cy="85.5" r="2"/>
	<circle class="st1" cx="361.3" cy="120.5" r="2"/>
	<circle class="st1" cx="361.3" cy="155.5" r="2"/>
	<circle class="st1" cx="361.3" cy="190.5" r="2"/>
	<circle class="st1" cx="361.3" cy="225.5" r="2"/>
	<circle class="st1" cx="361.3" cy="260.5" r="2"/>
	<circle class="st1" cx="361.3" cy="295.5" r="2"/>
	<circle class="st1" cx="396.3" cy="15.5" r="2"/>
	<circle class="st1" cx="396.3" cy="50.5" r="2"/>
	<circle class="st1" cx="396.3" cy="85.5" r="2"/>
	<circle class="st1" cx="396.3" cy="120.5" r="2"/>
	<circle class="st1" cx="396.3" cy="155.5" r="2"/>
	<circle class="st1" cx="396.3" cy="190.5" r="2"/>
	<circle class="st1" cx="396.3" cy="225.5" r="2"/>
	<circle class="st1" cx="396.3" cy="260.5" r="2"/>
	<circle class="st1" cx="396.3" cy="295.5" r="2"/>
	<circle class="st1" cx="431.3" cy="15.5" r="2"/>
	<circle class="st1" cx="431.3" cy="50.5" r="2"/>
	<circle class="st1" cx="431.3" cy="85.5" r="2"/>
	<circle class="st1" cx="431.3" cy="120.5" r="2"/>
	<circle class="st1" cx="431.3" cy="155.5" r="2"/>
	<circle class="st1" cx="431.3" cy="190.5" r="2"/>
	<circle class="st1" cx="431.3" cy="225.5" r="2"/>
	<circle class="st1" cx="431.3" cy="260.5" r="2"/>
	<circle class="st1" cx="431.3" cy="295.5" r="2"/>
	<circle class="st1" cx="466.3" cy="15.5" r="2"/>
	<circle class="st1" cx="466.3" cy="50.5" r="2"/>
	<circle class="st1" cx="466.3" cy="85.5" r="2"/>
	<circle class="st1" cx="466.3" cy="120.5" r="2"/>
	<circle class="st1" cx="466.3" cy="155.5" r="2"/>
	<circle class="st1" cx="466.3" cy="190.5" r="2"/>
	<circle class="st1" cx="466.3" cy="225.5" r="2"/>
	<circle class="st1" cx="466.3" cy="260.5" r="2"/>
	<circle class="st1" cx="466.3" cy="295.5" r="2"/>
	<circle class="st1" cx="501.3" cy="15.5" r="2"/>
	<circle class="st1" cx="501.3" cy="50.5" r="2"/>
	<circle class="st1" cx="501.3" cy="85.5" r="2"/>
	<circle class="st1" cx="501.3" cy="120.5" r="2"/>
	<circle class="st1" cx="501.3" cy="155.5" r="2"/>
	<circle class="st1" cx="501.3" cy="190.5" r="2"/>
	<circle class="st1" cx="501.3" cy="225.5" r="2"/>
	<circle class="st1" cx="501.3" cy="260.5" r="2"/>
	<circle class="st1" cx="501.3" cy="295.5" r="2"/>
	<circle class="st1" cx="536.3" cy="15.5" r="2"/>
	<circle class="st1" cx="536.3" cy="50.5" r="2"/>
	<circle class="st1" cx="536.3" cy="85.5" r="2"/>
	<circle class="st1" cx="536.3" cy="120.5" r="2"/>
	<circle class="st1" cx="536.3" cy="155.5" r="2"/>
	<circle class="st1" cx="536.3" cy="190.5" r="2"/>
	<circle class="st1" cx="536.3" cy="225.5" r="2"/>
	<circle class="st1" cx="536.3" cy="260.5" r="2"/>
	<circle class="st1" cx="536.3" cy="295.5" r="2"/>
	<circle class="st1" cx="571.3" cy="15.5" r="2"/>
	<circle class="st1" cx="571.3" cy="50.5" r="2"/>
	<circle class="st1" cx="571.3" cy="85.5" r="2"/>
	<circle class="st1" cx="571.3" cy="120.5" r="2"/>
	<circle class="st1" cx="571.3" cy="155.5" r="2"/>
	<circle class="st1" cx="571.3" cy="190.5" r="2"/>
	<circle class="st1" cx="571.3" cy="225.5" r="2"/>
	<circle class="st1" cx="571.3" cy="260.5" r="2"/>
	<circle class="st1" cx="571.3" cy="295.5" r="2"/>
</g>
<g id="patterns" class="st2">
	<g>
		<line class="st3" x1="11.3" y1="50.5" x2="11.3" y2="85.5"/>
		<line class="st4" x1="11.3" y1="85.5" x2="-58.7" y2="50.5"/>
	</g>
	<g>
		<line class="st4" x1="-58.7" y1="155.5" x2="11.3" y2="120.5"/>
		<line class="st5" x1="11.3" y1="120.5" x2="11.3" y2="155.5"/>
		<circle class="st6" cx="11.3" cy="155.5" r="3.5"/>
	</g>
	<g>
		<line class="st3" x1="11.3" y1="295.5" x2="11.3" y2="260.5"/>
		<line class="st4" x1="11.3" y1="260.5" x2="-23.7" y2="260.5"/>
	</g>
	<g>
		<line class="st3" x1="116.3" y1="155.5" x2="81.3" y2="190.5"/>
		<line class="st4" x1="81.3" y1="190.5" x2="81.3" y2="155.5"/>
		<line class="st5" x1="81.3" y1="155.5" x2="46.3" y2="190.5"/>
		<circle class="st6" cx="46.3" cy="190.5" r="3.5"/>
	</g>
	<g>
		<line class="st3" x1="46.3" y1="295.5" x2="81.3" y2="260.5"/>
		<line class="st4" x1="81.3" y1="260.5" x2="46.3" y2="260.5"/>
		<line class="st5" x1="46.3" y1="260.5" x2="81.3" y2="295.5"/>
		<circle class="st6" cx="81.3" cy="295.5" r="3.5"/>
	</g>
	<g>
		<line class="st3" x1="221.3" y1="85.5" x2="186.3" y2="85.5"/>
		<line class="st4" x1="186.3" y1="85.5" x2="151.3" y2="50.5"/>
		<line class="st5" x1="151.3" y1="50.5" x2="151.3" y2="85.5"/>
		<circle class="st6" cx="151.3" cy="85.5" r="3.5"/>
	</g>
	<g>
		<line class="st3" x1="186.3" y1="190.5" x2="186.3" y2="155.5"/>
		<line class="st4" x1="186.3" y1="155.5" x2="186.3" y2="120.5"/>
		<line class="st5" x1="186.3" y1="120.5" x2="221.3" y2="155.5"/>
		<circle class="st6" cx="221.3" cy="155.5" r="3.5"/>
	</g>
	<g>
		<line class="st3" x1="186.3" y1="225.5" x2="221.3" y2="225.5"/>
		<line class="st4" x1="221.3" y1="225.5" x2="186.3" y2="260.5"/>
		<line class="st5" x1="186.3" y1="260.5" x2="151.3" y2="225.5"/>
		<circle class="st6" cx="151.3" cy="225.5" r="3.5"/>
	</g>
	<g>
		<line class="st3" x1="256.3" y1="15.5" x2="291.3" y2="85.5"/>
		<line class="st4" x1="291.3" y1="85.5" x2="326.3" y2="50.5"/>
		<line class="st5" x1="326.3" y1="50.5" x2="291.3" y2="50.5"/>
		<circle class="st6" cx="291.3" cy="50.5" r="3.5"/>
	</g>
	<g>
		<line class="st3" x1="291.3" y1="190.5" x2="326.3" y2="120.5"/>
		<line class="st4" x1="326.3" y1="120.5" x2="326.3" y2="155.5"/>
		<line class="st5" x1="326.3" y1="155.5" x2="291.3" y2="155.5"/>
		<circle class="st6" cx="291.3" cy="155.5" r="3.5"/>
	</g>
	<g>
		<line class="st3" x1="326.3" y1="260.5" x2="291.3" y2="260.5"/>
		<line class="st4" x1="291.3" y1="260.5" x2="256.3" y2="260.5"/>
		<line class="st5" x1="256.3" y1="260.5" x2="291.3" y2="295.5"/>
		<circle class="st6" cx="291.3" cy="295.5" r="3.5"/>
	</g>
	<g>
		<line class="st3" x1="361.3" y1="85.5" x2="396.3" y2="85.5"/>
		<line class="st4" x1="396.3" y1="85.5" x2="361.3" y2="50.5"/>
		<line class="st5" x1="361.3" y1="50.5" x2="396.3" y2="50.5"/>
		<circle class="st6" cx="396.3" cy="50.5" r="3.5"/>
	</g>
	<g>
		<line class="st3" x1="361.3" y1="225.5" x2="396.3" y2="225.5"/>
		<line class="st4" x1="396.3" y1="225.5" x2="431.3" y2="295.5"/>
		<line class="st5" x1="431.3" y1="295.5" x2="431.3" y2="260.5"/>
		<circle class="st6" cx="431.3" cy="260.5" r="3.5"/>
	</g>
	<g>
		<line class="st3" x1="466.3" y1="50.5" x2="466.3" y2="15.5"/>
		<line class="st4" x1="466.3" y1="15.5" x2="501.3" y2="85.5"/>
		<line class="st5" x1="501.3" y1="85.5" x2="501.3" y2="50.5"/>
		<circle class="st6" cx="501.3" cy="50.5" r="3.5"/>
	</g>
	<g>
		<line class="st3" x1="501.3" y1="120.5" x2="501.3" y2="155.5"/>
		<line class="st4" x1="501.3" y1="155.5" x2="501.3" y2="190.5"/>
		<line class="st5" x1="501.3" y1="190.5" x2="536.3" y2="120.5"/>
		<circle class="st6" cx="536.3" cy="120.5" r="3.5"/>
	</g>
	<g>
		<line class="st3" x1="501.3" y1="225.5" x2="501.3" y2="260.5"/>
		<line class="st4" x1="501.3" y1="260.5" x2="536.3" y2="295.5"/>
		<line class="st5" x1="536.3" y1="295.5" x2="466.3" y2="260.5"/>
		<circle class="st6" cx="466.3" cy="260.5" r="3.5"/>
	</g>
	<g>
		<line class="st3" x1="606.3" y1="15.5" x2="571.3" y2="85.5"/>
		<line class="st4" x1="571.3" y1="85.5" x2="606.3" y2="85.5"/>
		<line class="st5" x1="606.3" y1="85.5" x2="641.3" y2="85.5"/>
	</g>
	<g>
		<line class="st3" x1="571.3" y1="190.5" x2="606.3" y2="120.5"/>
		<line class="st4" x1="606.3" y1="120.5" x2="571.3" y2="120.5"/>
		<line class="st5" x1="571.3" y1="120.5" x2="641.3" y2="120.5"/>
	</g>
	<g>
		<line class="st3" x1="641.3" y1="260.5" x2="606.3" y2="295.5"/>
		<line class="st4" x1="606.3" y1="295.5" x2="571.3" y2="260.5"/>
		<line class="st5" x1="571.3" y1="260.5" x2="606.3" y2="260.5"/>
	</g>
</g>
<g id="Title">
	<rect x="46.3" y="120.5" class="st1" width="350" height="70"/>
	<g class="st7">
		<path class="st8" d="M63.4,136.6h10.5c1.6,0,3.1,0.2,4.5,0.6c1.5,0.4,2.8,1,3.9,1.8c1.1,0.8,2.1,1.8,2.7,3.1c0.7,1.3,1,2.8,1,4.5
			c0,1.1-0.2,2-0.5,2.9c-0.3,0.9-0.7,1.6-1.3,2.3c-0.6,0.7-1.2,1.3-1.9,1.8c-0.7,0.5-1.6,0.9-2.5,1.3l0,0.1c1,0.2,2,0.6,3,1.2
			c0.9,0.6,1.7,1.2,2.4,2c0.7,0.8,1.2,1.7,1.6,2.7c0.4,1,0.6,2.1,0.6,3.3c0,1.7-0.3,3.2-0.9,4.5c-0.6,1.3-1.5,2.4-2.6,3.4
			c-1.1,0.9-2.4,1.6-3.8,2.1s-3,0.8-4.5,0.8H63.4V136.6z M74.3,153.8c1.1,0,2.2-0.2,3.2-0.5c1-0.3,2-0.8,2.8-1.4
			c0.8-0.6,1.5-1.3,1.9-2.2c0.5-0.9,0.7-2,0.7-3.2c0-1.3-0.3-2.4-0.8-3.3s-1.2-1.6-2-2.2c-0.8-0.6-1.8-1-2.9-1.3s-2.2-0.4-3.3-0.4
			h-7.4v14.4H74.3z M66.6,172.2h9c1.2,0,2.3-0.2,3.3-0.6c1.1-0.4,2-0.9,2.8-1.6c0.8-0.7,1.4-1.5,1.9-2.5c0.5-1,0.7-2.1,0.7-3.3
			c0-1.2-0.2-2.3-0.7-3.2c-0.5-0.9-1.1-1.7-1.8-2.4c-0.8-0.6-1.7-1.1-2.7-1.5c-1-0.4-2.1-0.5-3.2-0.6h-9.3V172.2z"/>
		<path class="st8" d="M117,146.1c0.8,0.1,1.5,0.2,2,0.4l-0.4,3.1c-0.7-0.2-1.5-0.3-2.2-0.4s-1.5-0.1-2.3-0.1
			c-1.3,0-2.6,0.2-3.8,0.5c-1.2,0.3-2.2,0.8-3.2,1.4c-0.9,0.6-1.7,1.4-2.3,2.4s-1.2,2.1-1.5,3.4l0.1,18.3h-3.3v-28.5h3l0.2,4.4
			l0,1.3c1.1-2,2.6-3.5,4.5-4.6c1.9-1.1,4.2-1.6,6.7-1.6C115.5,146,116.2,146,117,146.1z"/>
		<path class="st8" d="M135,174.4c-1.6-0.7-3-1.7-4.2-3c-1.2-1.3-2.1-2.8-2.7-4.5c-0.7-1.7-1-3.5-1-5.4v-1.1c0-2,0.3-3.9,1-5.7
			s1.6-3.3,2.7-4.6c1.1-1.3,2.5-2.3,4-3.1c1.5-0.7,3.2-1.1,5-1.1c1.9,0,3.6,0.3,5,1c1.5,0.7,2.7,1.6,3.7,2.8c1,1.2,1.7,2.6,2.3,4.2
			c0.5,1.6,0.8,3.3,0.8,5.1v1.9h-21.4v0.9c0.1,1.5,0.4,2.9,0.9,4.2s1.2,2.4,2.1,3.4c0.9,1,2,1.9,3.2,2.5c1.2,0.6,2.6,0.9,4.2,0.9
			c1.8,0,3.3-0.3,4.8-1s2.6-1.6,3.7-2.9l2,1.5c-1.1,1.5-2.5,2.7-4.3,3.7s-3.9,1.4-6.2,1.4C138.4,175.5,136.6,175.2,135,174.4z
			 M136.3,149.4c-1.1,0.5-2,1.1-2.8,2c-0.8,0.9-1.5,1.9-2,3c-0.5,1.2-0.9,2.4-1.1,3.8h18.1V158c0-1.1-0.2-2.3-0.6-3.4
			c-0.4-1.1-1-2.1-1.7-3c-0.7-0.9-1.6-1.6-2.7-2.1s-2.3-0.8-3.6-0.8C138.5,148.7,137.3,148.9,136.3,149.4z"/>
		<path class="st8" d="M179.8,173c-0.1-0.7-0.2-1.5-0.2-2.2c-0.5,0.7-1.2,1.4-1.9,2c-0.7,0.6-1.5,1.1-2.4,1.5
			c-0.9,0.4-1.8,0.7-2.8,1c-1,0.2-2,0.3-3,0.3c-1.3,0-2.6-0.2-3.7-0.6c-1.2-0.4-2.2-0.9-3-1.6c-0.8-0.7-1.5-1.5-2-2.5
			c-0.5-1-0.7-2.1-0.7-3.3c0-1.6,0.4-3,1.1-4.2c0.7-1.2,1.7-2.1,2.9-2.8c1.2-0.7,2.6-1.2,4.2-1.6c1.6-0.3,3.3-0.5,5.1-0.5h6.2v-3.2
			c0-1.1-0.2-2-0.6-2.8c-0.4-0.8-1-1.5-1.7-2c-0.7-0.5-1.5-1-2.5-1.3c-1-0.3-2-0.4-3.1-0.4c-1,0-2,0.1-2.9,0.4
			c-0.9,0.3-1.7,0.6-2.5,1.1c-0.7,0.5-1.3,1.1-1.7,1.8c-0.4,0.7-0.7,1.5-0.7,2.4l-3.2,0c0.1-1.2,0.4-2.3,1-3.3
			c0.6-1,1.4-1.9,2.4-2.7c1-0.7,2.2-1.3,3.5-1.7c1.3-0.4,2.7-0.6,4.3-0.6c1.5,0,2.9,0.2,4.2,0.6s2.5,1,3.5,1.7
			c1,0.8,1.8,1.8,2.3,2.9c0.6,1.2,0.9,2.5,0.9,4.1V169c0,0.9,0.1,1.9,0.3,2.9c0.2,1,0.4,1.9,0.6,2.8v0.3h-3.4
			C180,174.4,179.9,173.7,179.8,173z M173,172.3c1-0.3,1.9-0.6,2.8-1.1s1.6-1.1,2.2-1.8c0.6-0.7,1.2-1.5,1.6-2.3v-6.2h-5.7
			c-1.6,0-3,0.1-4.5,0.4c-1.4,0.2-2.6,0.7-3.6,1.3c-0.8,0.5-1.5,1.1-1.9,1.9s-0.7,1.6-0.7,2.7c0,0.8,0.2,1.6,0.5,2.3
			c0.3,0.7,0.8,1.3,1.4,1.8c0.6,0.5,1.3,0.8,2.1,1.1c0.8,0.3,1.7,0.4,2.6,0.4C170.9,172.7,172,172.6,173,172.3z"/>
		<path class="st8" d="M196.8,164.2V175h-3.2v-40.5h3.2v26l3.4-3.3l11.6-10.7h4l-12.7,12l14.1,16.5h-4l-12.2-14.4L196.8,164.2z"/>
		<path class="st8" d="M248.8,172.2v2.8h-22.7v-38.4h3.2v35.6H248.8z"/>
		<path class="st8" d="M257.1,154.8c0.6-1.7,1.4-3.3,2.5-4.6c1.1-1.3,2.4-2.3,4-3.1c1.6-0.8,3.3-1.2,5.4-1.2s3.8,0.4,5.4,1.1
			c1.6,0.8,2.9,1.8,4,3.1c1.1,1.3,1.9,2.8,2.5,4.6s0.9,3.6,0.9,5.5v0.8c0,2-0.3,3.8-0.9,5.5s-1.4,3.3-2.5,4.6
			c-1.1,1.3-2.4,2.3-4,3.1c-1.6,0.8-3.4,1.2-5.3,1.2c-2,0-3.8-0.4-5.4-1.1c-1.6-0.8-2.9-1.8-4-3.1c-1.1-1.3-2-2.8-2.5-4.6
			s-0.9-3.6-0.9-5.5v-0.8C256.2,158.4,256.5,156.6,257.1,154.8z M260,165.5c0.4,1.4,1,2.7,1.9,3.7c0.8,1.1,1.8,1.9,3,2.6
			c1.2,0.7,2.6,1,4.1,1c1.5,0,2.9-0.3,4.1-1c1.2-0.7,2.2-1.5,3-2.6c0.8-1.1,1.4-2.3,1.8-3.7c0.4-1.4,0.6-2.9,0.6-4.4v-0.8
			c0-1.5-0.2-2.9-0.7-4.4s-1-2.6-1.8-3.7c-0.8-1.1-1.8-2-3-2.6s-2.6-1-4.1-1c-1.5,0-2.9,0.3-4.1,1s-2.2,1.5-3,2.6
			c-0.8,1.1-1.4,2.3-1.9,3.7c-0.4,1.4-0.6,2.9-0.6,4.4v0.8C259.4,162.7,259.6,164.1,260,165.5z"/>
		<path class="st8" d="M304.8,172.4c1-0.3,1.8-0.8,2.6-1.4c0.7-0.6,1.3-1.3,1.8-2.1c0.5-0.8,0.7-1.7,0.8-2.8h3
			c-0.1,1.4-0.4,2.6-1.1,3.7s-1.5,2.1-2.5,3c-1,0.8-2.2,1.5-3.5,2c-1.3,0.5-2.7,0.7-4.2,0.7c-2.1,0-3.9-0.4-5.5-1.2
			c-1.5-0.8-2.8-1.9-3.9-3.2c-1-1.3-1.8-2.8-2.3-4.5c-0.5-1.7-0.8-3.5-0.8-5.3v-1.1c0-1.8,0.3-3.6,0.8-5.3c0.5-1.7,1.3-3.2,2.3-4.6
			c1-1.3,2.3-2.3,3.8-3.1c1.5-0.8,3.4-1.2,5.5-1.2c1.6,0,3,0.2,4.4,0.8c1.3,0.5,2.5,1.2,3.5,2.1c1,0.9,1.8,2,2.3,3.2
			s0.9,2.6,0.9,4.1h-3c-0.1-1.1-0.3-2.1-0.8-3c-0.4-0.9-1-1.7-1.7-2.4c-0.7-0.7-1.6-1.2-2.6-1.5s-2-0.6-3.2-0.6
			c-1.7,0-3.1,0.3-4.2,1s-2.1,1.5-2.8,2.6c-0.8,1.1-1.3,2.3-1.6,3.7c-0.3,1.4-0.5,2.8-0.5,4.2v1.1c0,1.4,0.2,2.8,0.5,4.2
			c0.3,1.4,0.9,2.6,1.6,3.7c0.7,1.1,1.7,2,2.8,2.6c1.2,0.7,2.6,1,4.3,1C302.9,172.8,303.9,172.7,304.8,172.4z"/>
		<path class="st8" d="M326.4,164.2V175h-3.2v-40.5h3.2v26l3.4-3.3l11.6-10.7h4l-12.7,12l14.1,16.5h-4l-12.2-14.4L326.4,164.2z"/>
		<path class="st8" d="M354.5,177.7V175h23.3v2.7H354.5z"/>
	</g>
</g>
<g id="theLock" class="st2">
	<line class="st3" x1="46.3" y1="15.5" x2="116.3" y2="50.5"/>
	<line class="st4" x1="116.3" y1="50.5" x2="46.3" y2="85.5"/>
	<line class="st5" x1="46.3" y1="85.5" x2="81.3" y2="15.5"/>
	<circle class="st6" cx="81.3" cy="15.5" r="3.5"/>
</g>
</svg>
