<svg enable-background="new 0 0 1501 1000" viewBox="0 0 1501 1000" xmlns="http://www.w3.org/2000/svg"><g fill="#176969"><path d="m1478.5 671.4 26 15v-60l-26 15z"/><path d="m334.5 491.4 52 30 26-15-78-45-52 30v30z"/><path d="m386.5 581.4v30l26-15z"/><path d="m386.5 611.4v30l26-15z"/><path d="m386.5 671.4 26-15-26-15z"/><path d="m412.5 656.4v30l26 15 26-15z"/><path d="m464.5 566.4-26-15-26 15v30z"/><path d="m438.5 611.4 26-15-26-15z"/><path d="m464.5 626.4-52-30v60z"/><path d="m438.5 671.4 26-15-26-15z"/><path d="m464.5 566.4 26-15-26-15z"/><path d="m464.5 566.4v60l52-30z"/><path d="m464.5 626.4v60l52-30z"/><path d="m464.5 716.4 26-15-26-15z"/><path d="m516.5 566.4-26-15v30z"/><path d="m516.5 626.4-26-15v30z"/><path d="m490.5 701.4 26-15-26-15z"/><path d="m542.5 581.4-26-15v30z"/><path d="m516.5 656.4 26-15v-30l-26-15z"/><path d="m542.5 671.4-26-15v30z"/><path d="m646.5 581.4v-30l-26-15v30l-26 15v-60l-26 15-26-15 52-30 26 15v-30l-26-15-78 45-26 15 78 45v150l-26-15-78 45-78-45-26 15v-150l104-60 26 15 26-15-52-30-52 30-52 30-26-15v60l-26-15v-60l-26 15v60l26 15v30l26 15v90l130 75 130-75v-90l26-15v-30z"/><path d="m1478.5 41.4 26 15v-30l-26-15-52 30-26-15-52 30-26-15-52 30v60l-26 15v60l52 30v30l52 30 52-30 26 15 52-30 26 15v-30l-26-15v-30l26-15v-90l-26 15-26-15v-30zm-182 75v-30l26-15 26 15v30l-26 15zm104 30v30l-26 15-26-15v-30l26-15zm-130 45v-30l26-15 26 15v30l-26 15zm78 75-26-15v-30l26-15 26 15v30zm104-30-26 15-26-15v-30l26-15 26 15zm26-105v30l-26 15-26-15v-30l26-15zm-52-30-26 15-26-15v-30l26-15 26 15z"/><path d="m802.5 881.4-52 30v60l52 30 52-30v-60zm26 75-26-15-26 15v-30l26-15 26 15z"/><path d="m48.5 386.4 52 30 26-15v-60l26 15 26-15v60l26 15 104-60v-120l26-15v-90l-26-15-52-30-26 15-52-30-26 15-26-15-52 30-26-15-52 30v30l52-30 52 30 26-15-26-15 26-15 26 15 26-15 26 15-26 15 26 15 52-30 52 30v60l-52 30 26 15v30l-26-15v30l26 15v30l-26-15-26 15 26 15-26 15-26-15v-30l26-15v-60l-26 15v30l-52 30-52-30v-30l-26-15v60l26 15v30l-26 15-26-15 26-15-26-15-26 15v-30l26-15v-30l-26 15v-30l26-15-52-30v150z"/><path d="m74.5 191.4v-30l-26-15v30l-26-15v30l26 15z"/><path d="m48.5 26.4v-30l-26-15-26 15v60z"/><path d="m1478.5 341.4v30l26 15v-90l-26 15z"/><path d="m100.5 236.4 26 15v30l26-15 26 15v-30l26-15-26-15-26 15-26-15z"/><path d="m126.5 161.4v30l26-15z"/><path d="m126.5 41.4 26-15v-30l-26-15v30l-26 15v-30l-26-15v60l26 15z"/><path d="m178.5 161.4-26 15 26 15z"/><path d="m230.5 41.4 26-15v-30l-26-15v30l-26 15v-30l-26-15v60l26 15z"/><path d="m282.5 191.4v-30l-26-15v30l-26-15v30l26 15z"/><path d="m334.5 71.4 52-30v-30l-52-30v60l-26 15v-60l-26-15v90l26 15z"/><path d="m1452.5 806.4v90l.1.1v29.8l-.1.1 26 15 26-15v-30l-26-15v-60l26-15v-30z"/><path d="m1504.5 956.5v-30l-26 15z"/><path d="m412.5 86.4-52 30v210l26 15v60l78 45 26-15 26 15 78-45v-60l26-15v-210l-104-60-26 15-26-15zm52 0 26 15 26-15 78 45v180l-52 30 26 15v30l-26-15v30l-52-30-52 30v-30l-26 15v-30l26-15-52-30v-180z"/><path d="m438.5 161.4-26-15v150l26 15 26-15v-150l-26-15z"/><path d="m464.5 356.4 26-15 26 15v-30l-26-15-26 15z"/><path d="m516.5 26.4 52-30-26-15-52 30-26-15v30l-26-15v-30l-26 15v60l26-15 26 15z"/><path d="m568.5 296.4v-150l-26-15v30l-26-15v150l26 15z"/><path d="m672.5 56.4 52-30 78 45v30l26 15 26-15v-30l78-45 78 45 26-15v-60l-26-15-26 15v30l-52-30-26 15v-30l-26 15-26-15v60l-26 15-26-15v-60l-26 15-26-15v30l-26-15-52 30v-30l-26-15-26 15v60l26 15z"/><path d="m802.5 161.4v-30l-26-15v-30l-52-30-52 30v30l-26 15v60l52 30v30l26 15 26-15v-30l52-30zm-52 30-26-15-26 15-26-15v-30l26-15v-30l26-15 26 15v30l26 15v30z"/><path d="m802.5 341.4v-120l-26 15v30l-52 30-52-30v-30l-26-15v120l26 15v30l-26 15v90l52 30 26-15-26 15 26 15 78-45v-90l-26-15v-30zm-26 105-52 30-52-30v-30l52 30 52-30zm-26-45-26 15-26-15v-30l26 15 26-15zm0-60-26 15-52-30v-30l52 30 52-30v30z"/><path d="m828.5 596.4 26-15-26-15z"/><path d="m828.5 596.4-26-15v60l52 30 52-30v-60l-52-30v60z"/><path d="m906.5 191.4 26-15 52 30v-30l-52-30-52 30v30l26 15z"/><path d="m906.5 851.4 52 30v-30l26 15v-30l26 15v-30l26 15v-30l26 15v-60l26-15v-120l-208-120-26 15 104 60v90l-26 15-26-15v30l-26-15v30l26 15 78-45v-30l26 15v30l-104 60-52-30-52 30-104-60v-30l26-15v30l78 45 26-15v-30l-26 15v-30l-26 15-26-15v-90l130-75-26-15-26 15-208 120v120l26 15v60l26-15v30l26-15v30l26-15v30l26-15v30l78-45 26 15 26-15zm-52-60-78 45-104-60v-30l-26-15v-90l78-45v30l-52 30v60l26 15v30l26-15v30l26-15v30l26-15v30l78-45 78 45v-30l26 15v-30l26 15v-30l26 15v-30l26-15v-60l-52-30v-30l78 45v90l-26 15v30l-104 60z"/><path d="m906.5 341.4 26 15 26-15-26-15z"/><path d="m1088.5 926.4-78-45-130 75v60l26-15v-30l78 45 26-15-78-45 78-45 78 45-78 45 26 15 78-45v30l26 15v-60z"/><path d="m984.5 506.4v30l26-15v-120l-78 45-104-60v90l26-15v-30l26 15v30l52 30 26-15v-30l26-15z"/><path d="m1036.5 116.4-26-15-26 15v-30l-52-30-52 30v30l-52 30v150l26 15v60l78 45 78-45 78 45 78-45v-60l26-15v-150l-52-30v-30l-52-30-52 30zm104 30 26 15v120l-26-15-26 15 26 15v60l-52 30-52-30v-30l-26-15-26 15v30l-52 30-52-30v-60l26-15-26-15-26 15v-120l78-45 52 30 26-15 26 15 52-30z"/><path d="m1062.5 161.4-26 15v30l52-30 26 15v30l26-15v-30l-52-30z"/><path d="m1088.5 266.4v-30l-26-15v30l-26 15-26-15-26 15-26-15v-30l-26 15v30l52 30 26-15 26 15z"/><path d="m1062.5 341.4 26 15 26-15-26-15z"/><path d="m1166.5 71.4 26 15 78-45v-30l-26-15v30l-26 15-26-15-26 15-26-15v-30l-26 15v30z"/><path d="m360.5 926.4-26-15v30l26 15 26-15v-30l-26-15z"/><path d="m360.5 1016.4 26-15v-30l-26 15z"/><path d="m464.5 926.4-26 15-26-15v30l26 15 26-15 26 15 26-15v-30l-26 15z"/><path d="m542.5 1001.4 26 15v-30l-26-15z"/><path d="m594.5 911.4-26-15v30l-26-15v30l26 15 26-15z"/><path d="m594.5 821.4v-30l-26-15-78 45v30l-26 15-26-15v-30l-78-45-26 15v30l-26-15-26 15v60l-26 15v60l26 15v30l26 15v-30l26-15-52-30v-30l52-30-26-15v-30l52 30 26-15-26-15v-30l52 30v30l52 30 52-30v-30l52-30v30l-26 15 26 15 52-30v30l-26 15 52 30v30l-52 30 26 15v30l26-15v-30l26-15v-60l-26-15v-60l-26-15z"/><path d="m1166.5 641.4-26-15-26 15v30z"/><path d="m1218.5 911.4 52 30 52-30v-60l52-30v-60l-52-30-52 30-52-30-52 30v60l52 30zm104-120v-30l26 15v30l-26 15-26-15v-30zm-130 15v-30l26 15v-30l26 15v30l-26 15zm52 60 26 15v-30l26 15v30l-26 15-26-15z"/><path d="m1296.5 656.4-26-15-26 15 26 15z"/><path d="m1322.5 941.4-52 30-52-30v30l52 30 52-30z"/><path d="m1374.5 641.4 52 30v-30l-26-15z"/><path d="m1374.5 671.4-26-15-78 45-78-45-78 45v150l52 30-26 15v30l26 15v60l26 15 26-15-26-15v-120l-52-30v-90l78-45 52 30 52-30 78 45v90l-52 30v120l-26 15 26 15 26-15v-60l26-15v-30l-26-15 52-30v-150z"/><path d="m22.5 490.6-26-15v60l26-15z"/><path d="m74.5 520.6-26 15 26 15 26-15z"/><path d="m178.5 520.6v-30l-26-15-26 15v30l26 15z"/><path d="m256.5 745.6 26-15v-90l-52-30v-30l-26-15 52-30v-30l-26-15v-30l-78-45-78 45-78-45v30l52 30v30l26-15 26 15v-30l52-30 52 30v60l-52 30-26-15-26 15-26-15-26 15-26-15-26 15v30l26-15v150l26-15v-120l26-15 26 15v120l26 15v-150l26 15v120l26 15v-150l26 15v120l26-15v-60l26 15v60l-78 45-26-15v30l-52-30v30l-26-15-26 15v-30l-52 30v30l26-15 26 15 26-15 26 15 26-15 26 15 26-15v30l-52 30v-30l-26 15-26-15-26 15-26-15v30l-26-15v30l26 15v30l-26 15v90l26-15v-60l26 15v-90l26 15 26-15v90l26-15v60l26 15v-90l-26-15v-30l78-45v-30l52-30z"/><path d="m1244.5 386.4v30l26 15v30l26 15v-90l-26-15z"/><path d="m1374.5 431.4 26-15v-30l-26-15-26 15v90l26-15z"/><path d="m1452.5 386.4v-30l-78-45-26 15-26-15-26 15-26-15-78 45v30l-130 75v60l26-15v-30l104-60v60l26-15v30l26 15v30l-78 45v-30l52-30-26-15-78 45v-30l52-30v-30l-78 45-26 15 26 15v30l26 15 26-15v30l26 15 78-45 26 15v30l26 15 26-15 26 15 26-15v-30l26-15 78 45 26-15v-60l-52-30-26 15 52 30v30l-78-45v-30l-26 15v30l-26 15-26-15-26 15-26-15v-30l26-15-52-30v-30l-26-15v-60l52-30 26 15 26-15 26 15 26-15 52 30v60l-26 15v30l-52 30 26 15 52-30v-30l26 15v-60l52 30v-30z"/><path d="m1478.5 491.4 26 15v-30l-26-15z"/></g></svg>