<svg xmlns="http://www.w3.org/2000/svg" viewBox="0 0 1300 1300"><path fill="#ffd62d" d="M24.7 49.1V49l41.7-24 41.7 24.1 41.7 24.1v-.3L191.4 49l-41.7-24-41.6-24-41.7-24L24.7 1l-41.6 24v48zm125-23.9-41.6 23.9V49zM-16.9 121.2v48l41.7-24zM-16.9 217.3v48l41.7-24zM24.8 289.5l41.6 24v-.1l41.6-24 .1.1v-.1l41.6-24 .1.1 41.6 24v-.1l41.7 24.1v-.2l41.6-23.9-41.6-23.9v-.1l-41.7-24-41.6 23.9v-.1l41.6-23.9-41.7-24v.2l-41.6 23.9-41.7 24-41.6-23.9v-.1h-.1v.1l-41.6 23.9zM-16.9 409.6v48l41.7-24zM-16.9 698v48l41.7-24zM24.8 722.1l-41.7 24 41.7 24.1zM-16.9 794.2v48l41.7-24zM-16.9 890.3v48l41.7-24zM-16.9 1178.7v48l41.7-24zM24.8 1202.8l-41.7 24 41.7 24.1zM24.7 577.9 66.4 602v-.2l41.7-24-41.7-24v.1l-41.6 23.9v-.1l41.6-23.9-41.6-23.9v-.1l-41.7-24v48l41.7 24.1zM66.4 890.4v-.2l41.7-24-41.7-24v.1l-41.7 24zM24.7 1058.6l41.7 24.1v-.2l41.7-24-41.7-24v.1l-41.6 23.9v-.1l41.6-23.9-41.6-23.9v-.1l-41.7-24v48l41.7 24.1zM24.8 1298.9l-41.7-24v48l41.6-23.9v.1l-41.6 23.9 41.7 24.1v-.3l41.6-23.9zM108.1 97.1l-41.7-24v.1l-41.7 24 41.7 24.1v-.2z"/><path fill="#ffd62d" d="m66.4 169.3-41.7 24 41.7 24.1v-.1l41.6-24 .1.1v-.2l41.6-24 .1.1v-.2l41.6-23.9-41.6-23.9v-.1l-41.7-24-41.7 24 41.7 24.1zM66.4 361.6l-41.7 24 41.7 24.1v-.2l41.7-24-41.7-24z"/><path fill="#ffd62d" d="m108.1 385.6-41.7 24 41.7 24.1zM108.1 625.9l41.7 24.1v-.2l41.6-23.9-41.6-23.9v-.1l-41.7-24-41.7 24 41.7 24.1zM66.4 650l-41.7 24 41.7 24 41.7 24.1 41.7 24.1v-.3l41.6-23.9-41.7-24-41.7-24zm83.3 48.2-41.6 23.9v-.1zM108.1 866.3l-41.7 24 41.7 24.1zM108.1 1010.5l41.7 24.1v-.2l41.6-23.9-41.6-23.9v-.1.1zv-.1l41.7-24-41.7-24v.1l-41.7 24zM108.1 1106.6l41.7 24.1h-.1l41.7 24.1v-48.1l-41.6 23.9v-.1l41.6-23.9-41.6-23.9v-.1l-41.7-24-41.7 24 41.7 24.1zM108.1 1154.7l-41.7-24-41.7 24 41.7 24.1v-.1l41.7 24.1zM149.8 313.5h-.1v.1l-41.6 23.9 41.7 24.1v-.2l41.6-23.9-41.6-23.9zM149.8 553.7l41.6-23.9-41.6-23.9v-.1h-.1v.1l-41.6 23.9 41.7 24.1zM149.8 794.2h-.1v.1l-41.6 23.9 41.7 24.1v-.2l41.6-23.9-41.6-23.9zM233.1 217.4l41.6 24v-.1l41.7-24-41.7-24-41.6-23.9v-.1h-.1v.1l-41.6 23.9zM233.1 1082.4l41.6-23.9-41.7-24v.2l-41.6 23.9 41.7 24.1zM191.4 1299l-41.6 23.9v-.1l41.6-23.9-41.6-23.9v-.1h-.1v.1l-41.6 23.9 41.7 24.1h-.1l41.7 24.1v-.2l41.7-24-41.7-24zM274.7 49.1V49l41.7-24-41.7-24 41.7-24.1-41.7-24v.1L233-23 191.4 1 233 25zM274.7 1010.5v-.1l41.7-24-41.7-24v.1l-41.6 23.9v-.1l41.6-23.9-41.6-23.9v-.1h-.1v.1l-41.6 23.9 41.7 24.1h-.1l41.7 24.1zM274.7 1250.8l-41.6-23.9v-.1h-.1v.1l-41.6 23.9 41.7 24.1h-.1l41.7 24.1v-48.1l-41.6 23.9v-.1z"/><path fill="#ffd62d" d="m274.7 49.1-41.7 24v.2l-41.6 23.9 41.7 24.1v-.3l41.5-23.9.1.1v-.1l41.6-24 .1.1V73l41.7-24-41.7-24v.1zM274.7 241.4l41.7 24.1v-.2l41.7-24-41.7-24v.1zM316.4 457.7v-.1l41.6-23.9v.1zl41.7 24.1 41.6 24v-.1l41.7-24-41.7-24-41.6 23.9v-.1l41.6-23.9-41.6-23.9v-.2l41.5-23.9.1.1v-.2l41.6-24 .1.1v-.1l41.6-24 .1.1v-.2l41.6-23.9-41.6-23.9v-.1h-.1v.1l-41.6 23.9-41.7 24v.1l-41.7 24v.1l-41.6 23.9-41.7 24zM316.4 553.9v-.1l41.7 24.1h-.1l41.7 24.1v-.2l41.7-24-41.7-24v.1l-41.6 23.9v-.1l41.6-23.9-41.6-23.9v-.1l-41.7-24-41.7 24zM316.4 746.2v-.2l41.7-24-41.7-24v.1l-41.7 24zM316.4 1034.5l41.7-24-41.7-24-41.7 24 41.7 24.1z"/><path fill="#ffd62d" d="m358.1 722.1-41.7 24 41.7 24.1zM358.1 1154.8v-48.1l-41.7 24zM358.1 1202.7l-41.7-24v.1l-41.7 24 41.7 24.1v-.2z"/><path fill="#ffd62d" d="m358.1 1202.8-41.7 24 41.7 24.1zM358 97.2l41.7 24.1v-.2l41.7-24-41.7-24v.1l-41.6 23.9V97l41.6-23.9-41.6-23.9v-.1h-.1v.1l-41.6 23.9 41.7 24.1zM399.7 890.3v-.1l41.7-24-41.7-24v.1l-41.6 23.9v-.1l41.6-23.9-41.6-23.9v-.1l-41.7-24-41.7 24 41.7 24.1v-.1l41.7 24.1h-.1l41.7 24.1zM441.4 1 483-23l-41.6-24.1v.1l-41.7 24L358 1l41.7 24zM441.4 577.9l-41.7 24 41.7 24.1z"/><path fill="#ffd62d" d="m441.4 866.3-41.7 24 41.7 24.1zM399.7 1034.5v.1l-41.7 24 41.7 24.1v-.2l41.7-24zM483.1 1130.7v-.2l41.6-23.9-41.6-23.9v-.1h-.1v.1l-41.6 23.9zM483 25l-41.6 24.1 41.6 24V73l41.6-24 .1.1V49l41.7-24v-.1L608 1l-41.6-23.9v-.1h-.1v.1L524.7 1z"/><path fill="#ffd62d" d="M524.7 97.2v-.1l41.6-23.9v.1zl-41.7 24v.1l-41.6 23.9v.1l-41.7 24-41.6 23.9v-.1l41.6-23.9-41.6-24-41.7-24-41.7 24 41.7 24.1v-.1l41.6-23.9v.1l-41.6 23.9 41.7 24.1 41.6 24v-.1l41.6-24 .1.1v-.2l41.6-24 .1.1v-.2l41.5-23.9.1.1v-.1l41.6-24 .1.1v-.3L608 97.1l-41.6-24-41.7-24-41.7 24zM524.7 722l-41.6-24-41.7-24-41.7-24-41.7 24 41.7 24 41.7 24.1v-.1l41.6-23.9v.1l-41.6 23.9 41.7 24.1 41.6 24v-48.1L483.1 746v-.1zM524.7 866.2l41.6-23.9v.1l-41.6 23.9 41.7 24.1 41.6 24v-.1l41.7-24-41.7-24-41.6 23.9v-.1l41.6-23.9-41.6-24-41.7-24-41.6-23.9v-.1h-.1v.1l-41.6 23.9 41.7 24.1 41.6 24zM524.7 1298.9l-41.6-23.9v-.1h-.1v.1l-41.6 23.9 41.7 24.1h-.1l41.7 24.1V1299l-41.6 23.9v-.1zM566.4 650h-.1v.1L524.7 674l41.6 23.9v.1h.1v-.1L608 674l-41.6-23.9zM566.3 361.7l-41.6 23.9-41.7 24v.1l-41.6 23.9 41.7 24.1h-.1l41.7 24.1-41.7 24v.1l-41.6 23.9 41.7 24.1v-.2l41.5-23.9.1.1v-.2l41.6-24 .1.1v-.2l41.6-23.9-41.6-23.9v-.1h-.1v.1l-41.6 23.9v-.1l41.7-24-41.7-24 41.6-24 .1.1v-.3l41.5-23.9.1.1v-.1l41.6-24 .1.1v-.1l41.7-24-41.7-24-41.7 24v-.1l41.7-24-41.7-24 41.6-24 .1.1v-.2l41.7-24-41.7-24v.1l-41.7 24-41.7 24v.1l-41.6 23.9 41.7 24.1h-.1l41.6 24-41.6 24zm-41.6 72-41.6 23.9v-.1zm41.7-120.4 41.5-23.9.1.1-41.6 23.9zM608 1010.6v-.2l41.7-24-41.7-24v.1l-41.6 23.9v-.1l41.6-23.9-41.6-23.9v-.1h-.1v.1l-41.6 23.9 41.7 24.1h-.1zM566.4 1130.8v-.1h-.1v.1l-41.6 23.9 41.7 24.1 41.6 24v-.1l41.7-24-41.7-24zM566.4 1226.9v-.1l-41.7-24-41.7 24 41.7 24.1v-.1l41.7 24.1v-.2l41.6-23.9zM649.7 73.2V73l41.7-24-41.7-24v.1l-41.7 24z"/><path fill="#ffd62d" d="m608 914.4 41.7 24.1v-.2l41.7-24-41.7-24v.1zM649.7 1034.5l41.7-24-41.7-24-41.7 24 41.7 24.1zM649.7 1178.7v.1l-41.7 24 41.7 24.1v-.2l41.7-24zM691.3 97.2l41.7 24.1v-.2l41.6-24 .1.1V97l41.5-23.9.1.1V73l41.6-24 .1.1V49l41.7-24v-.1L941.3 1l-41.6-23.9v-.1h-.1v.1L858 1l-41.7 24v.1l-41.7 24v.1L733 73.1v.1l-41.6 23.9V97L733 73.1l-41.6-23.9v-.1h-.1v.1l-41.6 23.9 41.7 24.1zM733 1178.7l41.7-24-41.7-24-41.7 24 41.7 24.1zM691.3 1250.8l41.7-24-41.7-24zM774.7 1V.9l41.6-24-41.7-24v.2L733-23 691.3 1 733 25zM733 265.4l-41.7 24 41.7 24.1v-.1l41.6-23.9v.1L733 313.5l41.6 24v.1L733 361.5v.1l-41.7 24v.1l-41.6 23.9-41.7 24 41.7 24.1v-.1l41.6-23.9v.1l-41.6 23.9 41.6 24v.2l-41.6 23.9-41.7 24-41.7 24v.2l-41.6 23.9 41.7 24.1 41.6 24v-.1l41.7 24.1v-.1l41.7-24-41.7-24-41.7-24-41.6 23.9v-.1l41.5-23.9.1.1v-.1l41.6-24 .1.1v-.1l41.6-24 .1.1v-.3l41.5-23.9.1.1v-.1l41.7-24-41.7-24-41.6 23.9v-.1l41.6-23.9-41.6-23.9v-.2l41.5-23.9.1.1v-.2l41.6-24 .1.1v-.2l41.5-23.9.1.1v-.1l41.7-24-41.7-24-41.6 23.9v-.1l41.6-23.9-41.6-24zM733 746.1l-41.7 24v48l41.6-24 .1.1v-.1l41.7-24zM774.6 625.9v48l41.6-24 .1.1v-.1l41.7-24-41.7-24zM816.3 938.5v-.2l41.7-24-41.7-24v.1l-41.7 24v48l41.6-24zM774.6 1250.8v.2l-41.6 23.9-41.7 24L733 1323v-.1l41.6-24 .1.1v-.3l41.6-23.9z"/><path fill="#ffd62d" d="m816.3 409.6-41.7 24 41.7 24.1v-.1l41.6-24 .1.1-41.7 24 41.7 24.1-41.7 24-41.7 24v.1L733 553.8v.1l-41.7 24L733 602v-.2l41.6-24 .1.1v-.2l41.5-23.9.1.1v-.1l41.6-24 .1.1v-.2l41.6-24 .1.1v-.2l41.6-23.9-41.6-23.9v-.1h-.1v.1L858 481.7v-.1l41.7-24-41.7-24 41.6-24 .1.1v-.3l41.6-23.9-41.7-24v.2L858 385.6zM816.3 1082.6l-41.7 24 41.7 24.1v-.1l41.7-24zM899.7 169.3h-.1v.1L858 193.3l41.7 24.1 41.6 24v-.1l41.7-24v.1l-41.7 24 41.7 24.1v-.2l41.7-24-41.7-24-41.7-24-41.6-23.9zM899.7 601.7l41.5-23.9.1.1v-.1l41.7-24-41.7-24-41.7 24v.2L858 577.9l41.7 24.1zM858 818.1l41.6-24 .1.1v-.2l41.6-23.9-41.6-23.9v-.1h-.1v.1L858 770.1zM899.7 1082.4l41.6-23.9-41.7-24v.2l-41.6 23.9 41.7 24.1zM899.7 1274.7l41.5-23.9.1.1v-.1l41.7-24-41.7-24-41.7 24v.1l-41.6 23.9 41.7 24.1zM983 1130.7v-.1l41.7-24-41.7-24-41.7 24v48l41.6-24z"/><path fill="#ffd62d" d="m983 409.6-41.7 24 41.7 24.1v-.1l41.7-24zM983 601.9l-41.7 24v48l41.6-24 .1.1 41.7-24.1zM983 986.5l-41.7 24 41.7 24.1v-.1l41.7-24zM1024.6 1.1 983 25l-41.7 24.1 41.7 24V73l41.6-24 .1.1v-.2l41.6-23.9v-48l-41.7 24zM1024.6 97.3 983 121.2l-41.7-24-41.6 23.9v-.1l41.6-23.9-41.7-24v.2L858 97.2l-41.7 24-41.7 24 41.7 24.1v-.1l41.6-24 .1.1v-.1l41.6-24 .1.1 41.6 24v-.1l41.7 24.1v-.1l41.6-23.9v.1L983 169.3l41.7 24.1 41.6 24v-48.1l-41.6 23.9v-.1l41.6-23.9-41.6-23.9v-.2l41.5-23.9.1.1V73.2l-41.7 24zM1066.3 313.5v-48.1l-41.7 24zM1066.3 986.5v-48.1l-41.7 24zM1024.6 1251l-41.6 23.9-41.7 24v.1l-41.7 24 41.7 24.1v-.2l41.6-24 .1.1v-.1l41.6-24 .1.1v-.3l41.5-23.9.1.1v-48.1l-41.7 24zM1066.3 73.1v48l41.7-24zM1066.3 169.3v48l41.7-24zM1066.3 265.4v48l41.7-24zM1066.3 938.4v48l41.7-24zM1066.3 1226.8v48l41.7-24zM1107.9 337.5l41.7 24.1v-.1l41.7 24.1v-96.1l-41.7 24zM1107.9 433.6l41.7 24.1v-.1l41.7-24-41.7-24zM1107.9 529.8l41.7 24.1v-.1l41.6-24 .1.1v-48.1l-41.7 24zM1107.9 625.9l41.7 24.1v-.1l41.6-24 .1.1v-48.1l-41.7 24zM1107.9 818.2l41.7 24.1v-.1l41.6-24 .1.1v-48.1l-41.7 24zM1107.9 1010.5l41.7 24.1v-.1l41.7-24-41.7-24zM1107.9 1106.6v48l41.6-24 .1.1v-.1l41.7-24-41.7-24zM1107.9 1298.9v.2l-41.6 23.9 41.7 24.1v-.3l41.6-23.9zM1191.3 49l-41.7-24v.1L1108 49v-.1l41.6-23.9L1108 1.1V1l-41.7-24v48l41.7 24.1h-.1l41.7 24.1V73z"/><path fill="#ffd62d" d="m1191.3 49.1-41.7 24 41.7 24.1zM1191.3 145.2l-41.7-24-41.7 24 41.7 24.1v-.1zM1191.3 145.3l-41.7 24 41.7 24.1zM1191.3 241.3l-41.7-24v.1l-41.7 24 41.7 24.1v-.2z"/><path fill="#ffd62d" d="m1191.3 241.4-41.7 24 41.7 24.1zM1149.6 890.4l-41.7 24 41.7 24.1v-.2l41.6-24 .1.1v-48.1l-41.7 24zM1149.6 1178.8l-41.7 24 41.7 24.1v-.2l41.6-24 .1.1v-48.1l-41.7 24zM1232.9 24.9v.1h.1v-.1L1274.6 1 1233-22.9v-.1h-.1v.1L1191.3 1zM1191.3 97.2l41.7 24.1v-.3l41.6-23.9-41.7-24h.1l-41.7-24v48l41.6-23.9v.1zM1191.3 145.2v48l41.7-24zM1191.3 385.6l41.7 24.1v-.3l41.6-23.9-41.7-24h.1l-41.7-24v48l41.6-23.9v.1zM1233 890.4v-.3l41.6-23.9-41.7-24v.2l-41.6 23.9v48l41.6-24zM1233 1082.4l41.6-23.9-41.7-24v.2l-41.6 23.9 41.7 24.1zM1191.3 1154.7v48l41.7-24zM1232.9 265.4l-41.6-24v96l41.6-24 .1.1v-.2l41.5-23.9.1.1v-.1l41.6-24 .1.1v-48.1l-41.7 24zM1232.9 553.8v.2l-41.6 23.9v48l41.6-24 .1.1v-.3l41.5-23.9.1.1v-.1l41.6-24 .1.1v-48.1l-41.7 24zM1232.9 746.1v.1l-41.6 23.9v48l41.6-24 .1.1v-.2l41.5-23.9.1.1v-.1l41.6-24 .1.1v-48.1l-41.7 24zM1232.9 1226.8v.1l-41.6 23.9 41.7 24.1v-.2l41.5-23.9.1.1v-.1l41.7-24-41.7-24zM1274.6 49.1l41.7 24.1V25.1zM1274.6 145.3l-41.7 24v.1l-41.6 23.9 41.7 24.1v-.2l41.5-23.9.1.1v-.2l41.6-24 .1.1v-48.1l-41.7 24zM1316.3 361.6v-48.1l-41.7 24zM1274.6 433.7l-41.7 24v.1l-41.6 23.9v48l41.6-24 .1.1v-.2l41.5-23.9.1.1v-.2l41.7-24-41.7-24zM1274.6 626l-41.7 24v.1l-41.6 23.9 41.6 23.9v.1h.1v-.1l41.6-23.9v-.1l41.7-24-41.7-24zM1274.6 962.4l41.6-24 .1.1v-48.1l-41.7 24zM1316.3 1130.7v-48.1l-41.7 24z"/><path fill="#f94d73" d="m24.8-47-41.7 24L24.8 1zM-16.9-23h-.1v48L24.7 1zM-16.9 217.3l41.6-24 .1.1v-48.1l-41.7 24zM-16.9 361.5v48l41.6-24 .1.1v-48.1l-41.7-24zM-16.9 505.7l41.6-24 .1.1v-48.1l-41.7 24zM-16.9 649.9l41.7-24-41.7-24zM-16.9 698l41.7-24v-48l-41.7 24zM-16.9 890.2l41.6-24 .1.1v-48.1l-41.7 24zM-16.9 986.4l41.6-24 .1.1v-48.1l-41.7 24zM-16.9 1130.6l41.7-24-41.7-24zM-16.9 1178.7l41.6-24 .1.1v-48.1l-41.7 24zM66.3 73.1l.1.1V25.1l-41.7 24v.1l-41.6 23.9v48l41.6-24 .1.1V97zM66.4 505.7l41.7-24-41.7-24zM66.4 553.8l41.6-24 .1.1v-48.1l-41.7 24zM66.4 794.1l41.7-24-41.7-24zM66.4 842.2l41.6-24 .1.1v-48.1l-41.7 24zM66.4 986.4l41.7-24-41.7-24zM66.4 1274.8l41.7-24-41.7-24zM66.4 1322.9l41.6-24 .1.1v-48.1l-41.7 24zM149.8 313.5v-48.1l-41.7 24v.1l-41.7 24v48l41.6-24 .1.1v-.2zM149.7 121.1l41.6-24 .1.1V49.1l-41.7 24zM149.7 169.4l-41.6 23.9-41.7 24v48l41.6-24 .1.1v-.1l41.6-24 .1.1v-.2l41.5-23.9.1.1v-48.1l-41.7 24zM149.7 409.5l41.6-24 .1.1v-48.1l-41.7 24zM149.7 457.6l41.6-24 .1.1v-48.1l-41.7 24z"/><path fill="#f94d73" d="m149.7 505.7 41.6-24 .1.1v-48.1l-41.7 24zM149.7 601.8l41.6-24 .1.1v-48.1l-41.7 24zM149.7 698l41.7-24v-48l-41.7 24zM149.7 794.1l41.6-24 .1.1v-48.1l-41.7 24zM149.7 890.2l41.6-24 .1.1v-48.1l-41.7 24z"/><path fill="#f94d73" d="m149.7 938.3 41.6-24 .1.1v-48.1l-41.7 24zM149.7 986.4l41.6-24 .1.1v-48.1l-41.7 24zM149.7 1082.5l41.6-24 .1.1v-48.1l-41.7 24zM149.7 1226.7l41.7-24-41.7-24zM149.7 1274.8l41.6-24 .1.1v-48.1l-41.7 24zM191.4-47.1v.1l-41.7 24v48l41.7-24L233-23zM233 361.5l41.6-24 .1.1v-48.1l-41.7 24zM233 1130.6l41.6-24 .1.1v-48.1l-41.7 24zM233 1178.7v48l41.6-24 .1.1v-96.1l-41.7 24zM316.3 24.9v.1h.1v-.1L358 1l-41.6-24h-.1v.1L274.7 1zM316.4 121.3V73.2l-41.7 24-41.7 24v48l41.6-24 .1.1v-.1l41.6-24zM358.1-47l-41.7 24 41.7 24zM316.4 313.4l41.6-24 .1.1v-48.1l-41.7 24zM316.4 649.9l41.7-24-41.7-24zM316.4 698l41.7-24v-48l-41.7 24zM316.4 1082.5l41.6-24 .1.1v-48.1l-41.7 24zM316.4 1130.6l41.6-24 .1.1v-48.1l-41.7 24zM316.4 1322.9l41.7-24-41.7-24zM358.1 1347.1V1299l-41.7 24zM441.4 49.1v-.2L483 25l41.7-24 41.7-24.1-41.7-24v.1L483-23 441.4 1h-.1v.1L399.7 25v48l41.6-24zM441.4 145.3V97.2l-41.7 24v48l41.6-24zM441.4 241.4v-.1l41.6-24 .1.1v-.2l41.5-23.9.1.1v-.2l41.6-24 .1.1v-.2l41.5-23.9.1.1V97.2l-41.7 24v.1l-41.6 23.9v.1l-41.7 24v.1l-41.6 23.9-41.7 24v48l41.6-24zM399.7 553.8l41.6-24 .1.1v-48.1l-41.7 24zM399.7 794.1l41.7-24-41.7-24zM399.7 842.2l41.6-24 .1.1v-48.1l-41.7 24zM399.7 1130.6l41.6-24 .1.1v-48.1l-41.7 24zM399.7 1178.7v48l41.6-24 .1.1v-96.1l-41.7 24zM399.7 1274.8l41.6-24 .1.1v-48.1l-41.7 24zM399.7 1322.9l41.6-24 .1.1v-48.1l-41.7 24zM483.1 409.7v-.3l41.5-23.9.1.1v-48.1l-41.7 24v.2l-41.6 23.9-41.7 24-41.7 24 41.7 24.1v-.1l41.6-24 .1.1v-.1l41.6-24zM483 650l41.6-24h.1v-48.1l-41.7 24z"/><path fill="#f94d73" d="m483 698 41.7-24v-48L483 650zM483 938.3l41.7-24-41.7-24zM483 986.4l41.6-24 .1.1v-48.1l-41.7 24zM483 1178.7v48l41.6-24 .1.1v-96.1l-41.7 24zM566.4 553.9v-.2l41.5-23.9.1.1v-48.1l-41.7 24v.1l-41.6 23.9-41.7 24v48l41.6-24 .1.1v-.1l41.6-24zM566.3 25.2l-41.6 23.9 41.7 24.1v-.3L607.9 49l.1.1V1l-41.7 24zM608 674l-41.7 24v48l41.6-24 .1.1zM608 722.1l-41.7 24v48l41.6-24 .1.1zM566.3 842.2l41.6-24 .1.1v-48.1l-41.7 24zM649.7 313.5v-.1l41.6-24 .1.1v-48.1l-41.7 24-41.7 24zM649.7 409.7v-.2l41.6-24 .1.1v-48.1l-41.7 24v.1l-41.7 24-41.7 24v.1l-41.6 23.9 41.7 24.1v-.2l41.5-23.9.1.1v-.1l41.6-24zM649.7 602v-.2l41.6-24 .1.1v-.2l41.5-23.9.1.1v-.1l41.6-24 .1.1v-48.1l-41.7 24-41.7 24v.1l-41.6 23.9v.1l-41.7 24zM691.4-47l-41.7 24v48l41.7-24zM691.4 674v-48l-41.7 24v96l41.6-24 .1.1zM649.7 794.1l41.6-24 .1.1v-48.1l-41.7 24zM691.4 914.4l-41.7 24v48l41.6-24 .1.1zM691.4 1058.6v-48.1l-41.7 24v48l41.6-24zM691.4 1347.1V1299l-41.7 24zM733 457.7v-.1l41.6-24 .1.1v-.2l41.5-23.9.1.1v-.2l41.6-24 .1.1v-48.1l-41.7 24v.1l-41.7 24v.1L733 409.6l-41.7 24z"/><path fill="#f94d73" d="m732.9 1274.8.1.1v-.1l41.6-24 .1.1v-48.1l-41.7 24-41.6 23.9v-47.9l-41.7 24v48l41.6-23.9v.1l-41.6 23.9-41.7 24v-48l-41.7 24v48l41.6-24 .1.1-41.7 24 41.7 24.1v-.2l41.6-24 .1.1v-.1l41.6-24 .1.1v-.3zM774.7 49.1v-.2L816.3 25 858 1v-48l-41.7 24-41.7 24v.1L733 25v48l41.6-24zM774.7 145.3v-.2l41.5-23.9.1.1v-.2l41.6-24 .1.1v-.1l41.6-24 .1.1v-.3L941.2 49l.1.1V1l-41.7 24v.2L858 49.1l-41.7 24v.1l-41.7 24v.1L733 121.2v48l41.6-24zM774.7 626v-.2l41.5-23.9.1.1v-.2l41.6-24 .1.1v-.1l41.6-24 .1.1v-.2l41.5-23.9.1.1v-48.1l-41.7 24v.1L858 529.8l-41.7 24v.1l-41.7 24v.1L733 601.9V650l41.6-24z"/><path fill="#f94d73" d="M733 650v96l41.6-24 .1.1v-.2l41.6-23.9v48l41.6-24 .1.1V626l-41.7 24-41.6 23.9V626zM774.7 818.3v-48.1l-41.7 24-41.6 23.9v-47.9l-41.7 24v96l41.6-24 .1.1v-.2l41.5-23.9.1.1v47.9l41.6-24 .1.1zM733 938.3l41.6-24 .1.1v-48.1l-41.7 24zM774.7 1202.8v-48.1l-41.7 24v48l41.6-24zM774.7 962.3v-47.9l-41.7 24v48l41.6-23.9v.1L733 986.5v48l41.6-24 .1.1v-.3l41.5-23.9.1.1v-.1l41.6-24 .1.1v-48.1l-41.7 24zM774.6 1298.9v.2L733 1323l41.7 24.1v-.3l41.5-23.9.1.1v-.1l41.6-24 .1.1v-48.1l-41.7 24z"/><path fill="#f94d73" d="m816.3 794.1 41.6-24 .1.1v-48.1l-41.7 24zM816.3 1178.7v48l41.6-24 .1.1v-96.1l-41.7 24zM816.3 1274.8l41.6-24 .1.1v-48.1l-41.7 24zM899.6 169.2l.1.1v-48.1l-41.7 24v.1l-41.7 24v48l41.6-24 .1.1v-.2zM899.7 457.7v-.2l41.5-23.9.1.1v-48.1l-41.7 24v.1L858 433.6zM899.6 698v48l41.6-24 .1.1v-.1l41.7-24v48l41.6-24 .1.1V626L983 650l-41.7 24v-48l-41.7 24zM899.6 890.2l41.6-24 .1.1v-96.1l-41.7 24v.1L858 818.2v-48l-41.7 24v96l41.6-24 .1.1v-.1l41.6-23.9z"/><path fill="#f94d73" d="m899.6 938.3 41.6-24 .1.1v-48.1l-41.7 24zM941.3 1058.6l-41.7 24v48l41.6-24 .1.1zM941.3 577.9l-41.7 24v48l41.6-24 .1.1v-.1l41.6-24 .1.1v-.2l41.6-24 .1.1v-96.1l-41.7 24v48l41.6-24-41.6 24v.1zM983 1274.9v-.1l41.6-24 .1.1v-48.1l-41.7 24-41.7 24v.1l-41.7 24v48l41.6-24 .1.1v-.2l41.6-24zM1024.7 289.5v-48.1l-41.7 24v48l41.6-24z"/><path fill="#f94d73" d="m1024.7 433.7-41.7 24v48l41.6-24 .1.1zM983 746.1v48l41.6-24 .1.1v-48.1zM1024.7 818.3v-48.1l-41.7 24v48l41.6-24-41.6 24v48l41.6-24 .1.1zM1024.7 1010.5l-41.7 24v48l41.6-24 .1.1zM1024.6 1202.7l.1-47.9v-48.1l-41.7 24-41.7 24v-48l-41.7 24v96l41.6-24 .1.1v-.1l41.6-24 .1.1v47.9zm0-48-41.6 24zM1024.6-46.9 983-23v48l41.7-24V.8l41.6-23.9-41.7-24zM1024.6 49.2 983 73.1v48l41.6-24 .1.1V97l41.5-23.9.1.1V25.1l-41.7 24zM1066.3 169.3v-48.1l-41.7 24zM1024.6 1299.1 983 1323l41.7 24.1v-.3l41.5-23.9.1.1v-48.1l-41.7 24zM1108 145.3V97.2l-41.7 24v48l41.6-24zM1108 241.4v-48.1l-41.7 24v48l41.6-24zM1108 337.6v-48.1l-41.7 24v48l41.6-24zM1108 1010.6v-48.1l-41.7 24v96l41.6-24 .1.1zM1108 1058.6l-41.7 24v48l41.6-24 .1.1z"/><path fill="#f94d73" d="m1066.3 1322.9 41.6-24 .1.1v-48.1l-41.7 24zM1108 1154.6v-47.9l-41.7 24v96l41.6-24 .1.1v-.2l41.5-23.9.1.1v-.1l41.6-24 .1.1v-48.1l-41.7 24zM1149.6 25l41.7-24v-48l-41.7 24zM1149.6 505.7l41.6-24 .1.1v-48.1l-41.7 24zM1149.6 601.8l41.6-24 .1.1v-48.1l-41.7 24zM1149.6 698v48l41.6-24 .1.1V626l-41.7 24zM1149.6 794.1l41.6-24 .1.1v-48.1l-41.7 24zM1149.6 890.2l41.6-24 .1.1v-48.1l-41.7 24zM1149.6 986.4l41.6-24 .1.1v-48.1l-41.7 24zM1149.6 1082.5l41.6-24 .1.1v-48.1l-41.7 24zM1149.6 1274.8l41.6-24 .1.1v-48.1l-41.7 24zM1149.6 1322.9l41.6-24 .1.1v-48.1l-41.7 24zM1191.3 1347.1V1299l-41.7 24zM1233 1226.9v-.3l41.5-23.9.1.1v-96.1l-41.7 24v48.2l-41.6 23.9v48l41.6-24zM1274.6 49.1V1l-41.7 24v48l41.6-24zM1274.6 145.3V97.2l-41.7 24v48l41.6-24zM1274.6 385.6l-41.7 24v48l41.6-24 .1.1zM1232.9 601.9v.1l-41.6 23.9v48l41.6-24 .1.1v-.2l41.5-23.9.1.1v-.1l41.6-24 .1.1v-48.1l-41.7 24zM1232.9 698v48l41.6-24 .1.1v-.1l41.7-24v-48l-41.7 24zM1274.6 914.4l-41.6 23.9v-.1l41.5-23.9zv-48.1l-41.7 24v.2l-41.6 23.9v48l41.6-23.9v47.9l41.6-24 .1.1-41.7 24v48l41.6-24 .1.1v-.2l41.6-24 .1.1v-48.1l-41.7 24zM1274.6 1058.6l-41.7 24v48l41.6-24 .1.1zM1274.6 193.3l-41.7 24v48l41.6-24 .1.1v-.1l41.6-24 .1.1v-48.1zM1274.6 289.5l-41.7 24v.1l-41.6 23.9 41.7 24.1v-.2l41.5-23.9.1.1v-.2l41.6-24 .1.1v-48.1l-41.7 24zM1274.6 481.8l-41.7 24v.1l-41.6 23.9v48l41.6-24 .1.1v-.2l41.5-23.9.1.1v-.2l41.6-24 .1.1v-48.1l-41.7 24zM1274.6 770.2l-41.7 24v.1l-41.6 23.9v48l41.6-24 .1.1v-.2l41.5-23.9.1.1v-.2l41.6-24 .1.1v-48.1l-41.7 24zM1274.6 1250.9l-41.7 24v48l41.6-24 .1.1v-.2l41.6-24 .1.1v-48.1l-41.7 24z"/><g fill="#60a2f9"><path d="m-16.9 313.5 41.7 24.1 41.6 24v-48.1l-41.6 23.9v-.1l41.6-23.9-41.6-24-41.7-24v48l41.6-23.9v.1zM-16.9 553.8v48l41.7-24zM24.8 626l41.6 24v-.1l41.7-24v.1l-41.7 24 41.7 24 41.7 24v-48l-41.7 24v-.1l41.7-24-41.7-24-41.7-24L24.8 578v-.1.1l-41.6 23.9zM-16.9 794.2l41.7 24.1 41.6 24v-48.1l-41.6 23.9v-.1l41.5-23.9.1.1V746l41.7-24-41.7-24v.1l-41.7 24V770l-41.6-23.9v48l41.6-23.9v.1zM-16.9 1034.5v48l41.7-24zM66.4 169.2l41.7-24-41.7-24-41.7-24v48l41.7 24.1zM24.7 193.3v48l41.7-24zM66.4 217.4l-41.7 24 41.7 24.1zM24.7 529.7l41.6-24 .1.1v-48.1l-41.7 24z"/><path d="M66.4 553.9v-48.1l-41.7 24zM24.7 722l41.7-24-41.7-24zM24.7 914.3l41.7-24-41.7-24zM66.4 1034.6v-.1l41.7 24.1 41.7 24.1v-48.1l-41.7 24v-.1l41.7-24-41.7-24-41.7-24-41.7 24zM24.7 1202.7l41.7-24-41.7-24zM66.4 25v48l41.7-24zM108.1 770.1l41.7 24.1v-48.1l-41.7-24-41.7 24 41.7 24.1z"/><path d="m108.1 914.3-41.7-24v.1l-41.7 24v96l41.6-24 .1.1v-48.2z"/><path d="m108.1 962.4 41.7 24.1v-96.1l-41.7 24-41.7 24 41.7 24.1zM108.1 1202.7l-41.7-24v.1l-41.7 24v47.9l-41.6-23.9v48l41.6-23.9v.1l-41.6 23.9 41.7 24.1 41.6 24v-48.1l-41.6 23.9v-.1l41.5-23.9.1.1v-48.2z"/><path d="m108.1 1250.8 41.7 24.1v-96.1l-41.7 24-41.7 24 41.7 24.1zM108.1-47.1V1l41.7-24.1zM149.8-23 108.1 1l41.7 24zM108.1 97.2l41.7 24.1V73.2zv-.1l41.7-24-41.7-24-41.7 24zM108.1 337.5v48l41.7-24z"/><path d="m149.8 457.7-41.7 24v-.1zv-96.1l-41.7 24v48l-41.7-24-41.7-24v96l41.6-24 .1.1v-.1l41.7-24v.1l-41.7 24 41.7 24.1v-.1l41.7 24.1zM108.1 529.8v48l41.7-24zM149.8 602v-48.1l-41.7 24zM108.1 818.2v48l41.7-24zM149.8 890.4v-48.1l-41.7 24v48l41.6-24zM149.8 1178.8l41.6 24v-.1l41.6-24 .1.1v-48.1l-41.7 24-41.6-23.9v-.1.1l-41.6 23.9v-.1l41.7-24-41.7-24-41.7-24-41.6-23.9v-.1.1l-41.6 23.9 41.7 24.1 41.6 24v-.1l41.7-24v.1l-41.7 24 41.7 24.1v47.9zM108.1 1346.9l41.7-24-41.7-24zM149.7 313.4l41.7-24-41.7-24zM191.4 1h-.1v48L233 25zM233 73.1V73l41.7-24L233 25l-41.6 24.1zM233.1 121.2l-41.7-24v48l41.7 24.1zM233.1 265.5l41.6 24v-.1l41.7 24.1v-48.1l-41.7-24-41.6 23.9v-.1l41.6-23.9-41.7-24h.1l-41.7-24v48l41.6-23.9v.1l-41.6 23.9zM233.1 313.4l-41.7-24v.1l-41.7 24 41.7 24.1v-.2z"/><path d="m233.1 313.5-41.7 24 41.7 24.1zM191.4 1010.4l41.7-24-41.7-24zM233.1 1082.6l-41.7-24v96l41.6-24 .1.1zM233.1 1178.8l-41.7 24 41.7 24.1zM191.4 1298.8l41.7-24-41.7-24zM274.7 193.2l41.7-24-41.7-24zM274.7 433.6v48l41.7-24zM274.7 577.8l41.7-24-41.7-24zM316.4 698v-48l-41.7 24zM274.7 866.2l41.7-24-41.7-24zM316.4 1034.5l-41.7-24-41.6-23.9v-.1h-.1v.1l-41.6 23.9 41.7 24.1 41.6 24v-.1zM316.4 1082.7v-48.1l-41.7 24v96l41.6-24 .1.1zM274.7 1299l-41.6 23.9v-.1l41.6-23.9-41.6-23.9v-.1h-.1v.1l-41.6 23.9 41.7 24.1h-.1l41.7 24.1v-.2l41.6-24 .1.1v-48.1l-41.7 24zM316.4 73.1v48l41.7-24zM358.1 145.3l41.6 24v-48.1l-41.6-23.9v-.1h-.1v.1l-41.6 23.9zM316.4 169.3l-41.7 24 41.7 24.1v-.1l41.7 24.1h-.1l41.7 24.1v-48.1l-41.6 23.9v-.1l41.6-23.9-41.6-23.9v-.1z"/><path d="m358.1 577.8-41.7-24v.1l-41.7 24v96l41.6-24 .1.1v-48.2zM358.1 866.2l-41.7-24v.1l-41.7 24 41.7 24.1v-.2zM316.4 1130.7l-41.7 24 41.7 24.1v-.1l41.7 24.1h-.1v47.9l-41.6-23.9-41.7-24v96l41.6-24 .1.1v-.1l41.6-23.9v.1l-41.6 23.9 41.7 24.1 41.6 24v-48.1l-41.6 23.9v-.1l41.5-23.9.1.1v-96.1l-41.6 23.9v-.1l41.5-23.9.1.1v-48.1l-41.6 24zM358 1v48l41.7-24zM399.7 25.1l-41.7 24 41.7 24.1zM399.7 505.7l-41.6-24-41.7-24-41.7 24 41.7 24.1v-.1l41.6-23.9v.1l-41.6 23.9 41.7 24.1 41.6 24v-48.1l-41.6 23.9v-.1z"/><path d="M358.1 578v-.1h-.1v.1l-41.6 23.9 41.7 24.1 41.6 24v-.1l41.7-24-41.7-24zM358 722l41.7-24-41.7-24zM358 1106.6v48l41.6-24 .1.1v-48.1l-41.7-24z"/><path d="m399.7 650 41.7 24v-.1l41.6-24 .1.1v-96.1l-41.7 24V626zM441.4 722l-41.7-24v.1l-41.7 24V770l-41.6-23.9-41.7-24v48l41.7 24.1v-.1l41.6-23.9v.1l-41.6 23.9 41.7 24.1 41.6 24v-48.1l-41.6 23.9v-.1l41.5-23.9.1.1V746zM399.7 890.4l-41.6 23.9v-.1l41.6-23.9-41.6-23.9v-.1h-.1v.1l-41.6 23.9 41.7 24.1h-.1l41.7 24.1v-.2l41.7-24-41.7-24z"/><path d="m441.4 962.4 41.7 24.1v-96.1l-41.7 24-41.7 24 41.7 24.1zM441.4 97.2l41.7 24.1v-.3l41.6-23.9-41.6-24-41.7-24v48L483 73.2v.1zM441.4 433.6v48l41.7-24zM483.1 505.8v-.2l41.6-23.9-41.6-23.9v-.1h-.1v.1l-41.6 23.9v48l41.6-24zM441.4 529.8v48l41.7-24zM483.1 698v-48l-41.7 24zM441.4 1106.6v48l41.7-24zM441.4 1202.7l41.6-24 .1.1v-48.1l-41.7 24zM441.4 1346.9l41.7-24-41.7-24zM524.7 289.4v48l41.7-24zM524.7 385.5l41.6-24 .1.1v-.2l41.6-23.9-41.6-23.9v-.1h-.1v.1l-41.6 23.9zM524.7 674v48l41.7-24z"/><path d="m566.3 794.1.1.1v-96.1l-41.7 24v48.1l-41.6 23.9v-.1l41.6-23.9-41.6-23.9v-.1l-41.7-24-41.7 24 41.7 24.1v-.1l41.7 24.1h-.1l41.7 24.1v-.2z"/><path d="m566.4 794.2-41.7 24 41.7 24.1zM524.7 962.4v48l41.7-24zM566.4 1274.8l-41.7-24v.1l-41.6 23.9v-.1l41.6-23.9-41.6-23.9v-48.1l-41.7 24v48l41.7 24.1h-.1l41.7 24.1v47.9l41.6-24 .1.1v-48.1l-41.7 24v-.1zM566.4 938.3v-.1l41.6-23.9-41.6-24-41.7-24-41.6 23.9v-.1l41.6-23.9-41.6-24-41.7-24v48l41.6-23.9v.1l-41.6 23.9v48l41.6-24 .1.1 41.6 24v-.1l41.6-23.9v.1l-41.6 23.9 41.7 24.1 41.6 24v-.1l41.7 24.1v-48.1l-41.7-24zM566.4 1226.7v-.1l41.6-23.9-41.6-24-41.7-24v48l41.6-23.9v.1l-41.6 23.9 41.7 24.1 41.6 24v47.9l41.6-24 .1.1v-48.1l-41.7-24zM649.7-23.1l-41.7-24v.1l-41.7 24L608 1zM649.7-23 608 1l41.7 24zM608 97.1l41.7-24-41.7-24zM608 433.6v48l41.7-24zM608 625.9v.1l-41.6 23.9v-.1zL566.4 602v-.1l-41.7-24v48l41.7 24.1h-.1l41.7 24 41.7-24.1zM649.7 698v-48L608 674v48zM608 770.1v48l41.6-24 .1.1v-96.1l-41.7 24zM608 866.2l41.6-24 .1.1v-48.1l-41.7 24z"/><path d="M649.7 890.4v-48.1l-41.7 24zM649.7 1034.5l-41.7-24-41.6-23.9v-.1h-.1v.1l-41.6 23.9 41.7 24.1 41.6 24v-.1zM649.7 1034.6l-41.7 24 41.7 24.1zM691.4 97.1l-41.7-24v.1l-41.7 24 41.7 24.1v-.2zM649.7 457.7l-41.7 24 41.7 24.1v-.1l41.7-24zM691.3 49 733 25 691.3 1zM733 73.1V25l-41.7 24.1z"/><path d="m733 121.2-41.6-23.9v-.1h-.1v.1l-41.6 23.9 41.7 24.1 41.6 24zM691.3 337.4l41.7-24-41.7-24zM691.3 625.9v48l41.6-24 .1.1v-48.1l-41.7-24zM691.3 722l41.7-24v-48l-41.7 24zM733 746.2v-48.1l-41.7 24zM691.3 914.3l41.6-24 .1.1v-48.1l-41.7 24zM691.3 962.4v48l41.6-24 .1.1v-96.1l-41.7 24z"/><path d="M733 1034.6v-48.1l-41.7 24zM691.3 1202.7l41.7-24-41.7-24zM733 1226.9v-48.1l-41.7 24zM691.3 1346.9l41.7-24-41.7-24zM733 313.5l-41.7 24v48l41.6-24 .1.1v-.1l41.7-24zM774.6 145.2v48l41.7-24zM816.3 169.3l-41.7 24 41.7 24.1zM774.6 481.6l41.7-24-41.7-24zM774.6 770.1v48l41.6-24 .1.1v-96.1l-41.7 24zM774.6 866.2l41.6-24 .1.1v-48.1l-41.7 24z"/><path d="M816.3 890.4v-48.1l-41.7 24zM774.6 1154.6l41.7-24-41.7-24zM774.6 1202.7l41.6-24 .1.1v-48.1l-41.7 24zM774.6 1250.8l41.7 24.1v-96.1l-41.7 24zM816.3 457.7l-41.7 24 41.7 24.1v-.1l41.7-24zM858 625.9V674l41.6-24h.1v-48.1l-41.7-24z"/><path d="m858 722 41.7-24v-48L858 674zM899.7 746.2v-48.1l-41.7 24zM858 914.3l41.6-24 .1.1v-48.1l-41.7 24zM899.7 938.5v-48.1l-41.7 24zM858 1106.6v48l41.6-24 .1.1v-48.1l-41.7-24zM858 1202.7l41.6-24 .1.1v-48.1l-41.7 24zM899.7 1226.9v-48.1l-41.7 24zM858 1298.8l41.7-24-41.7-24zM899.7 1323v-48.1l-41.7 24zM899.6 169.2l41.7-24-41.7-24zM899.7 265.3v-.1l41.6-23.9-41.6-24-41.7-24v48l41.6-23.9v.1L858 241.4l41.7 24.1 41.6 24v-.1l41.7 24.1v-48.1l-41.7-24zM983 25v-48l-41.7-24.1v.1l-41.7 24 41.7 24zM941.3 49.1v48l41.7-24zM983 121.3V73.2l-41.7 24z"/><path d="m983 169.2-41.7-24v.1l-41.7 24 41.7 24.1v-.2zM941.3 481.6l41.7-24-41.7-24zM941.3 529.7l41.6-24 .1.1v-48.1l-41.7 24z"/><path d="M983 553.9v-48.1l-41.7 24zM941.3 770.1v48l41.6-24 .1.1v-96.1l-41.7 24zM941.3 866.2l41.6-24 .1.1v-48.1l-41.7 24z"/><path d="M983 890.4v-48.1l-41.7 24zM941.3 1058.5l41.7-24-41.7-24zM983 1082.7v-48.1l-41.7 24zM983 1226.9v-48.1l-41.7 24zM1066.3 217.3l-41.6-23.9v-.1h-.1.1l-41.7-24-41.7 24 41.7 24.1v-.1l41.6-23.9-41.6 23.9 41.7 24.1h-.1l41.7 24.1v-48.1l-41.6 23.9v-.1zM1024.6 337.4l41.7-24-41.7-24zM1066.3 361.6v-48.1l-41.7 24zM1024.6 1010.4l41.7-24-41.7-24zM1024.6 1058.5l41.6-24 .1.1v-48.1l-41.7 24zM1024.6 1106.6v48l41.6-24 .1.1v-96.1l-41.7 24zM1024.6 1202.7l41.6-24 .1.1v-48.1l-41.7 24zM1066.3 1226.9v-48.1l-41.7 24zM1107.9 1l41.7 24v-48L1108 .9V.8l41.6-23.9-41.7-24v.2L1066.3-23zM1066.3 25v48l41.7-24zM1107.9 145.2v48l41.7-24zM1107.9 193.3l41.7 24.1v-.1l41.7 24.1v-48.1l-41.7-24zM1107.9 241.4v48l41.7 24.1v-.1l41.7-24-41.7-24zM1107.9 385.5l41.7-24-41.7-24zM1107.9 481.6l41.7-24-41.7-24zM1149.6 505.8v-48.1l-41.7 24zM1107.9 577.8l41.7-24-41.7-24zM1149.6 602v-48.1l-41.7 24zM1107.9 673.9l41.7-24-41.7-24zM1107.9 722l41.7-24v-48l-41.7 24zM1107.9 770.1l41.7 24.1v-96.1l-41.7 24zM1107.9 866.2l41.7-24-41.7-24zM1149.6 890.4v-48.1l-41.7 24zM1107.9 962.4l41.7 24.1v-48.1l-41.7-24zM1107.9 1058.5l41.7-24-41.7-24zM1149.6 1082.7v-48.1l-41.7 24zM1107.9 1250.8v48l41.6-24 .1.1v-48.1l-41.7-24zM1149.6 1323v-48.1l-41.7 24zM1191.3 97.1l-41.7-24v.1L1108 97.1V97l41.6-23.9-41.6-23.9v-.1h-.1v.1l-41.6 23.9 41.7 24.1h-.1l41.7 24.1v-.2z"/><path d="m1191.3 97.2-41.7 24 41.7 24.1zM1191.3 385.5l-41.7-24v.1l-41.7 24 41.7 24.1v-.2z"/><path d="m1191.3 385.6-41.7 24 41.7 24.1zM1191.3 49l41.7-24-41.7-24zM1233 73.2V25.1l-41.7 24zM1191.3 145.2l41.7 24.1v-48.1l-41.7-24zM1191.3 241.3l41.7-24-41.7-24zM1233 265.5v-48.1l-41.7 24zM1191.3 433.6l41.7 24.1v-48.1l-41.7-24zM1191.3 722l41.7-24-41.7-24zM1233 746.2v-48.1l-41.7 24zM1191.3 1010.4l41.6-24 .1.1v-48.1l-41.7 24zM1233 1034.6v-48.1l-41.7 24zM1191.3 1106.6v48l41.6-24 .1.1v-48.1l-41.7-24zM1233 1178.8v-48.1l-41.7 24zM1191.3 1298.8l41.7-24-41.7-24zM1233 1323v-48.1l-41.7 24zM1316.3-23.1l-41.7-24v.1l-41.7 24 41.7 24V.9zM1316.3 25v-48l-41.7 24zM1274.6 97.1l41.7-24-41.7-24zM1316.3 121.3V73.2l-41.7 24zM1274.6 385.5l41.7-24-41.7-24zM1274.6 433.6l41.7 24.1v-96.1l-41.7 24zM1316.3 650v-48.1l-41.7 24zM1274.6 866.2l41.6-24 .1.1v-48.1l-41.7 24zM1316.3 890.4v-48.1l-41.7 24zM1274.6 1058.5l41.6-24 .1.1v-48.1l-41.7 24zM1316.3 1082.7v-48.1l-41.7 24zM1274.6 1154.6l41.7-24-41.7-24zM1274.6 1202.7l41.6-24 .1.1v-48.1l-41.7 24zM1316.3 1226.9v-48.1l-41.7 24zM1274.6 1346.9l41.6-24 .1.1v-48.1l-41.7 24z"/></g></svg>