<svg enable-background="new 0 0 540 540" viewBox="0 0 540 540" xmlns="http://www.w3.org/2000/svg"><path d="m36 405 26-15v30z" fill="#2badad"/><path d="m36 405 26 15-26 15z" fill="#e3e35b"/><path d="m36 435 26-15v30z" fill="#e3e35b"/><path d="m62 390 26 15-26 15z" fill="#2badad"/><path d="m62 420 26-15v30z" fill="#0b2573"/><path d="m62 420 26 15-26 15z" fill="#0b2573"/><path d="m36 195 26-15v30z" fill="#2badad"/><g fill="#e3e35b"><path d="m36 195 26 15-26 15z"/><path d="m36 225 26-15v30z"/><path d="m36 225 26 15-26 15z"/><path d="m36 255 26-15v30z"/><path d="m36 255 26 15-26 15z"/><path d="m36 285 26-15v30z"/><path d="m36 285 26 15-26 15z"/><path d="m36 315 26-15v30z"/><path d="m36 315 26 15-26 15z"/><path d="m36 345 26-15v30z"/></g><path d="m62 180 26-15v30z" fill="#2badad"/><path d="m62 180 26 15-26 15z" fill="#2badad"/><path d="m62 210 26-15v30z" fill="#0b2573"/><path d="m62 210 26 15-26 15z" fill="#0b2573"/><path d="m62 240 26-15v30z" fill="#2badad"/><path d="m62 240 26 15-26 15z" fill="#e3e35b"/><path d="m62 270 26-15v30z" fill="#e3e35b"/><path d="m62 270 26 15-26 15z" fill="#0b2573"/><path d="m62 300 26-15v30z" fill="#0b2573"/><path d="m62 300 26 15-26 15z" fill="#0b2573"/><path d="m62 330 26-15v30z" fill="#2badad"/><path d="m62 330 26 15-26 15z" fill="#e3e35b"/><path d="m62 360 26-15v30z" fill="#e3e35b"/><path d="m88 165 26-15v30z" fill="#2badad"/><path d="m88 165 26 15-26 15z" fill="#2badad"/><path d="m88 195 26-15v30z" fill="#0b2573"/><path d="m88 195 26 15-26 15z" fill="#0b2573"/><path d="m88 225 26-15v30z" fill="#2badad"/><path d="m88 225 26 15-26 15z" fill="#2badad"/><path d="m88 255 26-15v30z" fill="#2badad"/><path d="m88 255 26 15-26 15z" fill="#e3e35b"/><path d="m88 285 26-15v30z" fill="#e3e35b"/><path d="m88 285 26 15-26 15z" fill="#0b2573"/><path d="m88 315 26-15v30z" fill="#2badad"/><path d="m88 315 26 15-26 15z" fill="#e3e35b"/><path d="m88 345 26-15v30z" fill="#e3e35b"/><path d="m88 345 26 15-26 15z" fill="#e3e35b"/><path d="m88 375 26-15v30z" fill="#e3e35b"/><path d="m114 150 26 15-26 15z" fill="#2badad"/><path d="m114 180 26-15v30z" fill="#0b2573"/><path d="m114 180 26 15-26 15z" fill="#0b2573"/><path d="m114 210 26-15v30z" fill="#2badad"/><path d="m114 210 26 15-26 15z" fill="#e3e35b"/><path d="m114 240 26-15v30z" fill="#e3e35b"/><path d="m114 240 26 15-26 15z" fill="#2badad"/><path d="m114 270 26-15v30z" fill="#0b2573"/><path d="m114 270 26 15-26 15z" fill="#0b2573"/><path d="m114 300 26-15v30z" fill="#2badad"/><path d="m114 300 26 15-26 15z" fill="#2badad"/><path d="m114 330 26-15v30z" fill="#0b2573"/><path d="m114 330 26 15-26 15z" fill="#0b2573"/><path d="m114 360 26-15v30z" fill="#0b2573"/><path d="m114 360 26 15-26 15z" fill="#0b2573"/><path d="m140 135 26-15v30z" fill="#2badad"/><path d="m140 135 26 15-26 15z" fill="#e3e35b"/><path d="m140 165 26-15v30z" fill="#e3e35b"/><path d="m140 165 26 15-26 15z" fill="#e3e35b"/><path d="m140 195 26-15v30z" fill="#2badad"/><path d="m140 195 26 15-26 15z" fill="#2badad"/><path d="m140 225 26-15v30z" fill="#0b2573"/><path d="m140 225 26 15-26 15z" fill="#0b2573"/><path d="m140 255 26-15v30z" fill="#2badad"/><path d="m140 255 26 15-26 15z" fill="#e3e35b"/><path d="m140 285 26-15v30z" fill="#e3e35b"/><path d="m140 285 26 15-26 15z" fill="#e3e35b"/><path d="m140 315 26-15v30z" fill="#e3e35b"/><path d="m140 315 26 15-26 15z" fill="#e3e35b"/><path d="m140 345 26-15v30z" fill="#e3e35b"/><path d="m140 345 26 15-26 15z" fill="#e3e35b"/><path d="m140 375 26-15v30z" fill="#e3e35b"/><path d="m140 375 26 15-26 15z" fill="#e3e35b"/><path d="m140 405 26-15v30z" fill="#e3e35b"/><path d="m166 120 26-15v30z" fill="#2badad"/><path d="m166 120 26 15-26 15z" fill="#2badad"/><path d="m166 150 26-15v30z" fill="#0b2573"/><path d="m166 150 26 15-26 15z" fill="#0b2573"/><path d="m166 180 26-15v30z" fill="#2badad"/><path d="m166 180 26 15-26 15z" fill="#2badad"/><path d="m166 210 26-15v30z" fill="#0b2573"/><path d="m166 210 26 15-26 15z" fill="#0b2573"/><path d="m166 240 26-15v30z" fill="#2badad"/><path d="m166 240 26 15-26 15z" fill="#2badad"/><path d="m166 270 26-15v30z" fill="#2badad"/><path d="m166 270 26 15-26 15z" fill="#e3e35b"/><path d="m166 300 26-15v30z" fill="#e3e35b"/><path d="m166 300 26 15-26 15z" fill="#0b2573"/><path d="m166 330 26-15v30z" fill="#2badad"/><path d="m166 330 26 15-26 15z" fill="#e3e35b"/><path d="m166 360 26-15v30z" fill="#e3e35b"/><path d="m166 360 26 15-26 15z" fill="#0b2573"/><path d="m166 390 26-15v30z" fill="#0b2573"/><path d="m166 390 26 15-26 15z" fill="#0b2573"/><path d="m192 105 26-15v30z" fill="#2badad"/><path d="m192 105 26 15-26 15z" fill="#2badad"/><path d="m192 135 26-15v30z" fill="#0b2573"/><path d="m192 135 26 15-26 15z" fill="#0b2573"/><path d="m192 165 26-15v30z" fill="#2badad"/><path d="m192 165 26 15-26 15z" fill="#2badad"/><path d="m192 195 26-15v30z" fill="#0b2573"/><path d="m192 195 26 15-26 15z" fill="#0b2573"/><path d="m192 225 26-15v30z" fill="#2badad"/><path d="m192 225 26 15-26 15z" fill="#2badad"/><path d="m192 255 26-15v30z" fill="#0b2573"/><path d="m192 255 26 15-26 15z" fill="#2badad"/><path d="m192 285 26-15v30z" fill="#2badad"/><path d="m192 285 26 15-26 15z" fill="#e3e35b"/><path d="m192 315 26-15v30z" fill="#e3e35b"/><path d="m192 315 26 15-26 15z" fill="#e3e35b"/><path d="m192 345 26-15v30z" fill="#e3e35b"/><path d="m192 345 26 15-26 15z" fill="#e3e35b"/><path d="m192 375 26-15v30z" fill="#2badad"/><path d="m192 375 26 15-26 15z" fill="#e3e35b"/><path d="m192 405 26-15v30z" fill="#e3e35b"/><path d="m192 405 26 15-26 15z" fill="#e3e35b"/><path d="m192 435 26-15v30z" fill="#e3e35b"/><path d="m218 90 26-15v30z" fill="#2badad"/><path d="m218 90 26 15-26 15z" fill="#2badad"/><path d="m218 120 26-15v30z" fill="#0b2573"/><path d="m218 120 26 15-26 15z" fill="#0b2573"/><path d="m218 150 26-15v30z" fill="#2badad"/><path d="m218 150 26 15-26 15z" fill="#2badad"/><path d="m218 180 26-15v30z" fill="#0b2573"/><path d="m218 180 26 15-26 15z" fill="#0b2573"/><path d="m218 210 26-15v30z" fill="#0b2573"/><path d="m218 210 26 15-26 15z" fill="#2badad"/><path d="m218 240 26-15v30z" fill="#0b2573"/><path d="m218 240 26 15-26 15z" fill="#0b2573"/><path d="m218 270 26-15v30z" fill="#2badad"/><path d="m218 270 26 15-26 15z" fill="#2badad"/><path d="m218 300 26-15v30z" fill="#0b2573"/><path d="m218 300 26 15-26 15z" fill="#0b2573"/><path d="m218 330 26-15v30z" fill="#0b2573"/><path d="m218 330 26 15-26 15z" fill="#0b2573"/><path d="m218 360 26-15v30z" fill="#2badad"/><path d="m218 360 26 15-26 15z" fill="#2badad"/><path d="m218 390 26-15v30z" fill="#0b2573"/><path d="m218 390 26 15-26 15z" fill="#0b2573"/><path d="m218 420 26-15v30z" fill="#0b2573"/><path d="m218 420 26 15-26 15z" fill="#0b2573"/><path d="m244 75 26-15v30z" fill="#2badad"/><path d="m244 75 26 15-26 15z" fill="#2badad"/><path d="m244 105 26-15v30z" fill="#0b2573"/><path d="m244 105 26 15-26 15z" fill="#0b2573"/><path d="m244 135 26-15v30z" fill="#2badad"/><path d="m244 135 26 15-26 15z" fill="#2badad"/><path d="m244 165 26-15v30z" fill="#0b2573"/><path d="m244 165 26 15-26 15z" fill="#0b2573"/><path d="m244 195 26-15v30z" fill="#2badad"/><path d="m244 195 26 15-26 15z" fill="#e3e35b"/><path d="m244 225 26-15v30z" fill="#e3e35b"/><path d="m244 225 26 15-26 15z" fill="#e3e35b"/><path d="m244 255 26-15v30z" fill="#2badad"/><path d="m244 255 26 15-26 15z" fill="#2badad"/><path d="m244 285 26-15v30z" fill="#0b2573"/><path d="m244 285 26 15-26 15z" fill="#0b2573"/><path d="m244 315 26-15v30z" fill="#2badad"/><path d="m244 315 26 15-26 15z" fill="#e3e35b"/><path d="m244 345 26-15v30z" fill="#e3e35b"/><path d="m244 345 26 15-26 15z" fill="#e3e35b"/><path d="m244 375 26-15v30z" fill="#e3e35b"/><path d="m244 375 26 15-26 15z" fill="#e3e35b"/><path d="m244 405 26-15v30z" fill="#e3e35b"/><path d="m244 405 26 15-26 15z" fill="#e3e35b"/><path d="m244 435 26-15v30z" fill="#e3e35b"/><path d="m244 435 26 15-26 15z" fill="#e3e35b"/><path d="m244 465 26-15v30z" fill="#e3e35b"/><path d="m270 60 26 15-26 15z" fill="#2badad"/><path d="m270 90 26-15v30z" fill="#2badad"/><path d="m270 90 26 15-26 15z" fill="#e3e35b"/><path d="m270 120 26-15v30z" fill="#e3e35b"/><path d="m270 120 26 15-26 15z" fill="#2badad"/><path d="m270 150 26-15v30z" fill="#2badad"/><path d="m270 150 26 15-26 15z" fill="#e3e35b"/><path d="m270 180 26-15v30z" fill="#e3e35b"/><path d="m270 180 26 15-26 15z" fill="#2badad"/><path d="m270 210 26-15v30z" fill="#0b2573"/><path d="m270 210 26 15-26 15z" fill="#0b2573"/><path d="m270 240 26-15v30z" fill="#0b2573"/><path d="m270 240 26 15-26 15z" fill="#2badad"/><path d="m270 270 26-15v30z" fill="#2badad"/><path d="m270 270 26 15-26 15z" fill="#e3e35b"/><path d="m270 300 26-15v30z" fill="#e3e35b"/><path d="m270 300 26 15-26 15z" fill="#2badad"/><path d="m270 330 26-15v30z" fill="#0b2573"/><path d="m270 330 26 15-26 15z" fill="#0b2573"/><path d="m270 360 26-15v30z" fill="#0b2573"/><path d="m270 360 26 15-26 15z" fill="#0b2573"/><path d="m270 390 26-15v30z" fill="#0b2573"/><path d="m270 390 26 15-26 15z" fill="#0b2573"/><path d="m270 420 26-15v30z" fill="#0b2573"/><path d="m270 420 26 15-26 15z" fill="#0b2573"/><path d="m270 450 26-15v30z" fill="#0b2573"/><path d="m270 450 26 15-26 15z" fill="#0b2573"/><path d="m296 75 26 15-26 15z" fill="#2badad"/><path d="m296 105 26-15v30z" fill="#2badad"/><path d="m296 105 26 15-26 15z" fill="#e3e35b"/><path d="m296 135 26-15v30z" fill="#e3e35b"/><path d="m296 135 26 15-26 15z" fill="#2badad"/><path d="m296 165 26-15v30z" fill="#2badad"/><path d="m296 165 26 15-26 15z" fill="#e3e35b"/><path d="m296 195 26-15v30z" fill="#e3e35b"/><path d="m296 195 26 15-26 15z" fill="#e3e35b"/><path d="m296 225 26-15v30z" fill="#2badad"/><path d="m296 225 26 15-26 15z" fill="#e3e35b"/><path d="m296 255 26-15v30z" fill="#e3e35b"/><path d="m296 255 26 15-26 15z" fill="#2badad"/><path d="m296 285 26-15v30z" fill="#2badad"/><path d="m296 285 26 15-26 15z" fill="#e3e35b"/><path d="m296 315 26-15v30z" fill="#e3e35b"/><path d="m296 315 26 15-26 15z" fill="#e3e35b"/><path d="m296 345 26-15v30z" fill="#e3e35b"/><path d="m296 345 26 15-26 15z" fill="#e3e35b"/><path d="m296 375 26-15v30z" fill="#e3e35b"/><path d="m296 375 26 15-26 15z" fill="#e3e35b"/><path d="m296 405 26-15v30z" fill="#e3e35b"/><path d="m296 405 26 15-26 15z" fill="#e3e35b"/><path d="m296 435 26-15v30z" fill="#e3e35b"/><path d="m322 90 26 15-26 15z" fill="#2badad"/><path d="m322 120 26-15v30z" fill="#2badad"/><path d="m322 120 26 15-26 15z" fill="#e3e35b"/><path d="m322 150 26-15v30z" fill="#e3e35b"/><path d="m322 150 26 15-26 15z" fill="#2badad"/><path d="m322 180 26-15v30z" fill="#2badad"/><path d="m322 180 26 15-26 15z" fill="#e3e35b"/><path d="m322 210 26-15v30z" fill="#e3e35b"/><path d="m322 210 26 15-26 15z" fill="#2badad"/><path d="m322 240 26-15v30z" fill="#2badad"/><path d="m322 240 26 15-26 15z" fill="#e3e35b"/><path d="m322 270 26-15v30z" fill="#e3e35b"/><path d="m322 270 26 15-26 15z" fill="#2badad"/><path d="m322 300 26-15v30z" fill="#0b2573"/><path d="m322 300 26 15-26 15z" fill="#0b2573"/><path d="m322 330 26-15v30z" fill="#0b2573"/><path d="m322 330 26 15-26 15z" fill="#0b2573"/><path d="m322 360 26-15v30z" fill="#0b2573"/><path d="m322 360 26 15-26 15z" fill="#0b2573"/><path d="m322 390 26-15v30z" fill="#0b2573"/><path d="m322 390 26 15-26 15z" fill="#0b2573"/><path d="m322 420 26-15v30z" fill="#0b2573"/><path d="m322 420 26 15-26 15z" fill="#0b2573"/><path d="m348 105 26 15-26 15z" fill="#2badad"/><path d="m348 135 26-15v30z" fill="#2badad"/><path d="m348 135 26 15-26 15z" fill="#e3e35b"/><path d="m348 165 26-15v30z" fill="#e3e35b"/><path d="m348 165 26 15-26 15z" fill="#2badad"/><path d="m348 195 26-15v30z" fill="#2badad"/><path d="m348 195 26 15-26 15z" fill="#e3e35b"/><path d="m348 225 26-15v30z" fill="#e3e35b"/><path d="m348 225 26 15-26 15z" fill="#2badad"/><path d="m348 255 26-15v30z" fill="#2badad"/><path d="m348 255 26 15-26 15z" fill="#e3e35b"/><path d="m348 285 26-15v30z" fill="#e3e35b"/><path d="m348 285 26 15-26 15z" fill="#0b2573"/><path d="m348 315 26-15v30z" fill="#0b2573"/><path d="m348 315 26 15-26 15z" fill="#e3e35b"/><path d="m348 345 26-15v30z" fill="#e3e35b"/><path d="m348 345 26 15-26 15z" fill="#e3e35b"/><path d="m348 375 26-15v30z" fill="#e3e35b"/><path d="m348 375 26 15-26 15z" fill="#e3e35b"/><path d="m348 405 26-15v30z" fill="#e3e35b"/><path d="m374 120 26 15-26 15z" fill="#2badad"/><path d="m374 150 26-15v30z" fill="#0b2573"/><path d="m374 150 26 15-26 15z" fill="#0b2573"/><path d="m374 180 26-15v30z" fill="#0b2573"/><path d="m374 180 26 15-26 15z" fill="#2badad"/><path d="m374 210 26-15v30z" fill="#2badad"/><path d="m374 210 26 15-26 15z" fill="#e3e35b"/><path d="m374 240 26-15v30z" fill="#e3e35b"/><path d="m374 240 26 15-26 15z" fill="#2badad"/><path d="m374 270 26-15v30z" fill="#0b2573"/><path d="m374 270 26 15-26 15z" fill="#0b2573"/><path d="m374 300 26-15v30z" fill="#0b2573"/><path d="m374 300 26 15-26 15z" fill="#0b2573"/><path d="m374 330 26-15v30z" fill="#0b2573"/><path d="m374 330 26 15-26 15z" fill="#0b2573"/><path d="m374 360 26-15v30z" fill="#0b2573"/><path d="m374 360 26 15-26 15z" fill="#0b2573"/><path d="m374 390 26-15v30z" fill="#0b2573"/><path d="m374 390 26 15-26 15z" fill="#0b2573"/><path d="m400 165 26-15v30z" fill="#2badad"/><path d="m400 165 26 15-26 15z" fill="#e3e35b"/><path d="m400 195 26-15v30z" fill="#e3e35b"/><path d="m400 195 26 15-26 15z" fill="#2badad"/><path d="m400 225 26-15v30z" fill="#2badad"/><path d="m400 225 26 15-26 15z" fill="#e3e35b"/><path d="m400 255 26-15v30z" fill="#e3e35b"/><path d="m400 255 26 15-26 15z" fill="#e3e35b"/><path d="m400 285 26-15v30z" fill="#e3e35b"/><path d="m400 285 26 15-26 15z" fill="#e3e35b"/><path d="m400 315 26-15v30z" fill="#e3e35b"/><path d="m400 315 26 15-26 15z" fill="#e3e35b"/><path d="m400 345 26-15v30z" fill="#e3e35b"/><path d="m400 345 26 15-26 15z" fill="#e3e35b"/><path d="m400 375 26-15v30z" fill="#e3e35b"/><path d="m426 150 26 15-26 15z" fill="#2badad"/><path d="m426 180 26-15v30z" fill="#2badad"/><path d="m426 180 26 15-26 15z" fill="#e3e35b"/><path d="m426 210 26-15v30z" fill="#2badad"/><path d="m426 210 26 15-26 15z" fill="#2badad"/><path d="m426 240 26-15v30z" fill="#0b2573"/><path d="m426 240 26 15-26 15z" fill="#0b2573"/><path d="m426 270 26-15v30z" fill="#0b2573"/><path d="m426 270 26 15-26 15z" fill="#0b2573"/><path d="m426 300 26-15v30z" fill="#0b2573"/><path d="m426 300 26 15-26 15z" fill="#0b2573"/><path d="m426 330 26-15v30z" fill="#0b2573"/><path d="m426 330 26 15-26 15z" fill="#0b2573"/><path d="m426 360 26-15v30z" fill="#0b2573"/><path d="m426 360 26 15-26 15z" fill="#0b2573"/><path d="m452 165 26 15-26 15z" fill="#2badad"/><path d="m452 195 26-15v30z" fill="#2badad"/><path d="m452 195 26 15-26 15z" fill="#2badad"/><path d="m452 225 26-15v30z" fill="#0b2573"/><path d="m452 225 26 15-26 15z" fill="#0b2573"/><path d="m452 255 26 15-26 15z" fill="#e3e35b"/><path d="m452 285 26-15v30z" fill="#e3e35b"/><path d="m452 285 26 15-26 15z" fill="#e3e35b"/><path d="m452 315 26-15v30z" fill="#e3e35b"/><path d="m452 315 26 15-26 15z" fill="#2badad"/><path d="m452 345 26-15v30z" fill="#0b2573"/><path d="m452 345 26 15-26 15z" fill="#0b2573"/><path d="m478 180 26 15-26 15z" fill="#2badad"/><path d="m478 210 26-15v30z" fill="#0b2573"/><path d="m478 210 26 15-26 15z" fill="#0b2573"/><path d="m478 240 26-15v30z" fill="#0b2573"/><path d="m478 270 26 15-26 15z" fill="#0b2573"/><path d="m478 300 26-15v30z" fill="#0b2573"/><path d="m478 300 26 15-26 15z" fill="#0b2573"/><path d="m478 330 26-15v30z" fill="#0b2573"/><path d="m478 330 26 15-26 15z" fill="#0b2573"/></svg>