<svg viewBox="-20 -45 226 226" xmlns="http://www.w3.org/2000/svg"><g fill="none" stroke="#176969" stroke-linejoin="round" stroke-miterlimit="10" stroke-width="5"><path d="m33 3-15 26h30z"/><path d="m33 3 15 26 15-26z"/><path d="m63 3-15 26h30z"/><path d="m63 3 15 26 15-26z"/><path d="m93 3-15 26h30z"/><path d="m93 3 15 26 15-26z"/><path d="m123 3-15 26h30z"/><path d="m123 3 15 26 15-26z"/><path d="m153 3-15 26h30z"/><path d="m18 29-15 26h30z"/><path d="m18 29 15 26 15-26z"/><path d="m138 29 15 26 15-26z"/><path d="m168 29-15 26h30z"/><path d="m3 55 15 26 15-26z"/><path d="m33 55-15 26h30z"/><path d="m63 55-15 26h30z"/><path d="m123 55-15 26h30z"/><path d="m153 55-15 26h30z"/><path d="m153 55 15 26 15-26z"/><path d="m18 81 15 26 15-26z"/><path d="m48 81-15 26h30z"/><path d="m48 81 15 26 15-26z"/><path d="m78 81-15 26h30z"/><path d="m108 81-15 26h30z"/><path d="m108 81 15 26 15-26z"/><path d="m138 81-15 26h30z"/><path d="m138 81 15 26 15-26z"/><path d="m63 107 15 26 15-26z"/><path d="m93 107-15 26h30z"/><path d="m93 107 15 26 15-26z"/></g></svg>