<svg enable-background="new 0 0 520 520" viewBox="0 0 520 520" xmlns="http://www.w3.org/2000/svg"><path d="m0 200 26-15v30z" fill="#2a293c"/><path d="m0 200 26 15-26 15z" fill="#2a293c"/><path d="m0 230 26-15v30z" fill="#2a293c"/><path d="m0 230 26 15-26 15z" fill="#2a293c"/><path d="m0 260 26-15v30z" fill="#2a293c"/><path d="m0 260 26 15-26 15z" fill="#2a293c"/><path d="m0 290 26-15v30z" fill="#2a293c"/><path d="m0 290 26 15-26 15z" fill="#403f56"/><path d="m0 320 26-15v30z" fill="#403f56"/><g fill="#2a293c"><path d="m26 185 26-15v30z"/><path d="m26 185 26 15-26 15z"/><path d="m26 215 26-15v30z"/><path d="m26 215 26 15-26 15z"/><path d="m26 245 26-15v30z"/><path d="m26 245 26 15-26 15z"/><path d="m26 275 26-15v30z"/><path d="m26 275 26 15-26 15z"/><path d="m26 305 26-15v30z"/></g><path d="m26 305 26 15-26 15z" fill="#403f56"/><path d="m26 335 26-15v30z" fill="#403f56"/><path d="m52 170 26-15v30z" fill="#2a293c"/><path d="m52 170 26 15-26 15z" fill="#2a293c"/><path d="m52 200 26-15v30z" fill="#fff"/><path d="m52 200 26 15-26 15z" fill="#fff"/><path d="m52 230 26-15v30z" fill="#fff"/><path d="m52 230 26 15-26 15z" fill="#dc054b"/><path d="m52 260 26-15v30z" fill="#dc054b"/><path d="m52 260 26 15-26 15z" fill="#dc054b"/><path d="m52 290 26-15v30z" fill="#dc054b"/><path d="m52 290 26 15-26 15z" fill="#2a293c"/><path d="m52 320 26-15v30z" fill="#2a293c"/><path d="m52 320 26 15-26 15z" fill="#403f56"/><path d="m52 350 26-15v30z" fill="#403f56"/><path d="m78 155 26-15v30z" fill="#2a293c"/><path d="m78 155 26 15-26 15z" fill="#2a293c"/><path d="m78 185 26-15v30z" fill="#fff"/><path d="m78 185 26 15-26 15z" fill="#fff"/><path d="m78 215 26-15v30z" fill="#fff"/><path d="m78 215 26 15-26 15z" fill="#fff"/><path d="m78 245 26-15v30z" fill="#f7f7f7"/><path d="m78 245 26 15-26 15z" fill="#dc054b"/><path d="m78 275 26-15v30z" fill="#dc054b"/><path d="m78 275 26 15-26 15z" fill="#dc054b"/><path d="m78 305 26-15v30z" fill="#dc054b"/><path d="m78 305 26 15-26 15z" fill="#2a293c"/><path d="m78 335 26-15v30z" fill="#2a293c"/><path d="m78 335 26 15-26 15z" fill="#403f56"/><path d="m78 365 26-15v30z" fill="#403f56"/><path d="m104 140 26-15v30z" fill="#2a293c"/><path d="m104 140 26 15-26 15z" fill="#2a293c"/><path d="m104 170 26-15v30z" fill="#fff"/><path d="m104 170 26 15-26 15z" fill="#fff"/><path d="m104 200 26-15v30z" fill="#fff"/><path d="m104 200 26 15-26 15z" fill="#fff"/><path d="m104 230 26-15v30z" fill="#15f"/><path d="m104 230 26 15-26 15z" fill="#f7f7f7"/><path d="m104 260 26-15v30z" fill="#f7f7f7"/><path d="m104 260 26 15-26 15z" fill="#dc054b"/><path d="m104 290 26-15v30z" fill="#dc054b"/><path d="m104 290 26 15-26 15z" fill="#dc054b"/><path d="m104 320 26-15v30z" fill="#dc054b"/><path d="m104 320 26 15-26 15z" fill="#2a293c"/><path d="m104 350 26-15v30z" fill="#2a293c"/><path d="m104 350 26 15-26 15z" fill="#403f56"/><path d="m104 380 26-15v30z" fill="#403f56"/><path d="m130 125 26-15v30z" fill="#2a293c"/><path d="m130 125 26 15-26 15z" fill="#2a293c"/><path d="m130 155 26-15v30z" fill="#2a293c"/><path d="m130 155 26 15-26 15z" fill="#fff"/><path d="m130 185 26-15v30z" fill="#fff"/><path d="m130 185 26 15-26 15z" fill="#fff"/><path d="m130 215 26-15v30z" fill="#15f"/><path d="m130 215 26 15-26 15z" fill="#15f"/><path d="m130 245 26-15v30z" fill="#f7f7f7"/><path d="m130 245 26 15-26 15z" fill="#f7f7f7"/><path d="m130 275 26-15v30z" fill="#15f"/><path d="m130 275 26 15-26 15z" fill="#15f"/><path d="m130 305 26-15v30z" fill="#15f"/><path d="m130 305 26 15-26 15z" fill="#15f"/><path d="m130 335 26-15v30z" fill="#2a293c"/><path d="m130 335 26 15-26 15z" fill="#2a293c"/><path d="m130 365 26-15v30z" fill="#2a293c"/><path d="m130 365 26 15-26 15z" fill="#403f56"/><path d="m130 395 26-15v30z" fill="#403f56"/><path d="m156 110 26-15v30z" fill="#2a293c"/><path d="m156 110 26 15-26 15z" fill="#2a293c"/><path d="m156 140 26-15v30z" fill="#2a293c"/><path d="m156 140 26 15-26 15z" fill="#2a293c"/><path d="m156 170 26-15v30z" fill="#2a293c"/><path d="m156 170 26 15-26 15z" fill="#fff"/><path d="m156 200 26-15v30z" fill="#f7f7f7"/><path d="m156 200 26 15-26 15z" fill="#dc054b"/><path d="m156 230 26-15v30z" fill="#dc054b"/><path d="m156 230 26 15-26 15z" fill="#dc054b"/><path d="m156 260 26-15v30z" fill="#dc054b"/><path d="m156 260 26 15-26 15z" fill="#2a293c"/><path d="m156 290 26-15v30z" fill="#2a293c"/><path d="m156 290 26 15-26 15z" fill="#2a293c"/><path d="m156 320 26-15v30z" fill="#2a293c"/><path d="m156 320 26 15-26 15z" fill="#2a293c"/><path d="m156 350 26-15v30z" fill="#2a293c"/><path d="m156 350 26 15-26 15z" fill="#2a293c"/><path d="m156 380 26-15v30z" fill="#2a293c"/><path d="m156 380 26 15-26 15z" fill="#403f56"/><path d="m156 410 26-15v30z" fill="#403f56"/><path d="m182 95 26-15v30z" fill="#2a293c"/><path d="m182 95 26 15-26 15z" fill="#2a293c"/><path d="m182 125 26-15v30z" fill="#2a293c"/><path d="m182 125 26 15-26 15z" fill="#2a293c"/><path d="m182 155 26-15v30z" fill="#2a293c"/><path d="m182 155 26 15-26 15z" fill="#2a293c"/><path d="m182 185 26-15v30z" fill="#2a293c"/><path d="m182 185 26 15-26 15z" fill="#f7f7f7"/><path d="m182 215 26-15v30z" fill="#f7f7f7"/><path d="m182 215 26 15-26 15z" fill="#f7f7f7"/><path d="m182 245 26-15v30z" fill="#15f"/><path d="m182 245 26 15-26 15z" fill="#15f"/><path d="m182 275 26-15v30z" fill="#15f"/><path d="m182 275 26 15-26 15z" fill="#15f"/><path d="m182 305 26-15v30z" fill="#2a293c"/><path d="m182 305 26 15-26 15z" fill="#2a293c"/><path d="m182 335 26-15v30z" fill="#2a293c"/><path d="m182 335 26 15-26 15z" fill="#2a293c"/><path d="m182 365 26-15v30z" fill="#2a293c"/><path d="m182 365 26 15-26 15z" fill="#2a293c"/><path d="m182 395 26-15v30z" fill="#2a293c"/><path d="m182 395 26 15-26 15z" fill="#403f56"/><path d="m182 425 26-15v30z" fill="#403f56"/><path d="m208 80 26-15v30z" fill="#2a293c"/><path d="m208 80 26 15-26 15z" fill="#2a293c"/><path d="m208 110 26-15v30z" fill="#fff"/><path d="m208 110 26 15-26 15z" fill="#dc054b"/><path d="m208 140 26-15v30z" fill="#fff"/><path d="m208 140 26 15-26 15z" fill="#fff"/><path d="m208 170 26-15v30z" fill="#f7f7f7"/><path d="m208 170 26 15-26 15z" fill="#dc054b"/><path d="m208 200 26-15v30z" fill="#dc054b"/><path d="m208 200 26 15-26 15z" fill="#dc054b"/><path d="m208 230 26-15v30z" fill="#dc054b"/><path d="m208 230 26 15-26 15z" fill="#2a293c"/><path d="m208 260 26-15v30z" fill="#f7f7f7"/><path d="m208 260 26 15-26 15z" fill="#dc054b"/><path d="m208 290 26-15v30z" fill="#eaeaea"/><path d="m208 290 26 15-26 15z" fill="#eaeaea"/><path d="m208 320 26-15v30z" fill="#eaeaea"/><path d="m208 320 26 15-26 15z" fill="#dc054b"/><path d="m208 350 26-15v30z" fill="#dc054b"/><path d="m208 350 26 15-26 15z" fill="#dc054b"/><path d="m208 380 26-15v30z" fill="#dc054b"/><path d="m208 380 26 15-26 15z" fill="#2a293c"/><path d="m208 410 26-15v30z" fill="#2a293c"/><path d="m208 410 26 15-26 15z" fill="#403f56"/><path d="m208 440 26-15v30z" fill="#403f56"/><path d="m234 65 26-15v30z" fill="#2a293c"/><path d="m234 65 26 15-26 15z" fill="#2a293c"/><path d="m234 95 26-15v30z" fill="#2a293c"/><path d="m234 95 26 15-26 15z" fill="#fff"/><path d="m234 125 26-15v30z" fill="#fff"/><path d="m234 125 26 15-26 15z" fill="#fff"/><path d="m234 155 26-15v30z" fill="#f7f7f7"/><path d="m234 155 26 15-26 15z" fill="#f7f7f7"/><path d="m234 185 26-15v30z" fill="#f7f7f7"/><path d="m234 185 26 15-26 15z" fill="#dc054b"/><path d="m234 215 26-15v30z" fill="#dc054b"/><path d="m234 215 26 15-26 15z" fill="#dc054b"/><path d="m234 245 26-15v30z" fill="#dc054b"/><path d="m234 245 26 15-26 15z" fill="#f7f7f7"/><path d="m234 275 26-15v30z" fill="#eaeaea"/><path d="m234 275 26 15-26 15z" fill="#eaeaea"/><path d="m234 305 26-15v30z" fill="#eaeaea"/><path d="m234 305 26 15-26 15z" fill="#eaeaea"/><path d="m234 335 26-15v30z" fill="#eaeaea"/><path d="m234 335 26 15-26 15z" fill="#dc054b"/><path d="m234 365 26-15v30z" fill="#dc054b"/><path d="m234 365 26 15-26 15z" fill="#dc054b"/><path d="m234 395 26-15v30z" fill="#dc054b"/><path d="m234 395 26 15-26 15z" fill="#2a293c"/><path d="m234 425 26-15v30z" fill="#2a293c"/><path d="m234 425 26 15-26 15z" fill="#403f56"/><path d="m234 455 26-15v30z" fill="#403f56"/><path d="m260 50 26 15-26 15z" fill="#2a293c"/><path d="m260 80 26-15v30z" fill="#2a293c"/><path d="m260 80 26 15-26 15z" fill="#2a293c"/><path d="m260 110 26-15v30z" fill="#fff"/><path d="m260 110 26 15-26 15z" fill="#fff"/><path d="m260 140 26-15v30z" fill="#f7f7f7"/><path d="m260 140 26 15-26 15z" fill="#f7f7f7"/><path d="m260 170 26-15v30z" fill="#15f"/><path d="m260 170 26 15-26 15z" fill="#f7f7f7"/><path d="m260 200 26-15v30z" fill="#15f"/><path d="m260 200 26 15-26 15z" fill="#15f"/><path d="m260 230 26-15v30z" fill="#15f"/><path d="m260 230 26 15-26 15z" fill="#15f"/><path d="m260 260 26-15v30z" fill="#eaeaea"/><path d="m260 260 26 15-26 15z" fill="#eaeaea"/><path d="m260 290 26-15v30z" fill="#eaeaea"/><path d="m260 290 26 15-26 15z" fill="#eaeaea"/><path d="m260 320 26-15v30z" fill="#15f"/><path d="m260 320 26 15-26 15z" fill="#eaeaea"/><path d="m260 350 26-15v30z" fill="#15f"/><path d="m260 350 26 15-26 15z" fill="#15f"/><path d="m260 380 26-15v30z" fill="#15f"/><path d="m260 380 26 15-26 15z" fill="#15f"/><path d="m260 410 26-15v30z" fill="#2a293c"/><path d="m260 410 26 15-26 15z" fill="#2a293c"/><path d="m260 440 26-15v30z" fill="#181823"/><path d="m260 440 26 15-26 15z" fill="#181823"/><path d="m286 65 26 15-26 15z" fill="#2a293c"/><path d="m286 95 26-15v30z" fill="#2a293c"/><path d="m286 95 26 15-26 15z" fill="#fff"/><path d="m286 125 26-15v30z" fill="#f7f7f7"/><path d="m286 125 26 15-26 15z" fill="#f7f7f7"/><path d="m286 155 26-15v30z" fill="#f7f7f7"/><path d="m286 155 26 15-26 15z" fill="#dc054b"/><path d="m286 185 26-15v30z" fill="#dc054b"/><path d="m286 185 26 15-26 15z" fill="#dc054b"/><path d="m286 215 26-15v30z" fill="#f7f7f7"/><path d="m286 215 26 15-26 15z" fill="#dc054b"/><path d="m286 245 26-15v30z" fill="#dc054b"/><path d="m286 245 26 15-26 15z" fill="#eaeaea"/><path d="m286 275 26-15v30z" fill="#eaeaea"/><path d="m286 275 26 15-26 15z" fill="#eaeaea"/><path d="m286 305 26-15v30z" fill="#eaeaea"/><path d="m286 305 26 15-26 15z" fill="#dc054b"/><path d="m286 335 26-15v30z" fill="#dc054b"/><path d="m286 335 26 15-26 15z" fill="#dc054b"/><path d="m286 365 26-15v30z" fill="#dc054b"/><path d="m286 365 26 15-26 15z" fill="#2a293c"/><path d="m286 395 26-15v30z" fill="#2a293c"/><path d="m286 395 26 15-26 15z" fill="#2a293c"/><path d="m286 425 26-15v30z" fill="#181823"/><path d="m286 425 26 15-26 15z" fill="#181823"/><path d="m312 80 26 15-26 15z" fill="#2a293c"/><path d="m312 110 26-15v30z" fill="#2a293c"/><path d="m312 110 26 15-26 15z" fill="#f7f7f7"/><path d="m312 140 26-15v30z" fill="#15f"/><path d="m312 140 26 15-26 15z" fill="#f7f7f7"/><path d="m312 170 26-15v30z" fill="#15f"/><path d="m312 170 26 15-26 15z" fill="#15f"/><path d="m312 200 26-15v30z" fill="#f7f7f7"/><path d="m312 200 26 15-26 15z" fill="#f7f7f7"/><path d="m312 230 26-15v30z" fill="#eaeaea"/><path d="m312 230 26 15-26 15z" fill="#dc054b"/><path d="m312 260 26-15v30z" fill="#dc054b"/><path d="m312 260 26 15-26 15z" fill="#eaeaea"/><path d="m312 290 26-15v30z" fill="#15f"/><path d="m312 290 26 15-26 15z" fill="#eaeaea"/><path d="m312 320 26-15v30z" fill="#15f"/><path d="m312 320 26 15-26 15z" fill="#15f"/><path d="m312 350 26-15v30z" fill="#15f"/><path d="m312 350 26 15-26 15z" fill="#15f"/><path d="m312 380 26-15v30z" fill="#2a293c"/><path d="m312 380 26 15-26 15z" fill="#2a293c"/><path d="m312 410 26-15v30z" fill="#181823"/><path d="m312 410 26 15-26 15z" fill="#181823"/><path d="m338 95 26 15-26 15z" fill="#2a293c"/><path d="m338 125 26-15v30z" fill="#2a293c"/><path d="m338 125 26 15-26 15z" fill="#2a293c"/><path d="m338 155 26-15v30z" fill="#2a293c"/><path d="m338 155 26 15-26 15z" fill="#2a293c"/><path d="m338 185 26-15v30z" fill="#f7f7f7"/><path d="m338 185 26 15-26 15z" fill="#f7f7f7"/><path d="m338 215 26-15v30z" fill="#eaeaea"/><path d="m338 215 26 15-26 15z" fill="#eaeaea"/><path d="m338 245 26-15v30z" fill="#15f"/><path d="m338 245 26 15-26 15z" fill="#15f"/><path d="m338 275 26-15v30z" fill="#15f"/><path d="m338 275 26 15-26 15z" fill="#15f"/><path d="m338 305 26-15v30z" fill="#2a293c"/><path d="m338 305 26 15-26 15z" fill="#2a293c"/><path d="m338 335 26-15v30z" fill="#2a293c"/><path d="m338 335 26 15-26 15z" fill="#2a293c"/><path d="m338 365 26-15v30z" fill="#2a293c"/><path d="m338 365 26 15-26 15z" fill="#2a293c"/><path d="m338 395 26-15v30z" fill="#181823"/><path d="m338 395 26 15-26 15z" fill="#181823"/><path d="m364 110 26 15-26 15z" fill="#2a293c"/><path d="m364 140 26-15v30z" fill="#2a293c"/><path d="m364 140 26 15-26 15z" fill="#2a293c"/><path d="m364 170 26-15v30z" fill="#f7f7f7"/><path d="m364 170 26 15-26 15z" fill="#f7f7f7"/><path d="m364 200 26-15v30z" fill="#eaeaea"/><path d="m364 200 26 15-26 15z" fill="#eaeaea"/><path d="m364 230 26-15v30z" fill="#eaeaea"/><path d="m364 230 26 15-26 15z" fill="#dc054b"/><path d="m364 260 26-15v30z" fill="#eaeaea"/><path d="m364 260 26 15-26 15z" fill="#dc054b"/><path d="m364 290 26-15v30z" fill="#dc054b"/><path d="m364 290 26 15-26 15z" fill="#dc054b"/><path d="m364 320 26-15v30z" fill="#dc054b"/><path d="m364 320 26 15-26 15z" fill="#2a293c"/><path d="m364 350 26-15v30z" fill="#2a293c"/><path d="m364 350 26 15-26 15z" fill="#2a293c"/><path d="m364 380 26-15v30z" fill="#181823"/><path d="m364 380 26 15-26 15z" fill="#181823"/><path d="m390 125 26 15-26 15z" fill="#2a293c"/><path d="m390 155 26-15v30z" fill="#2a293c"/><path d="m390 155 26 15-26 15z" fill="#f7f7f7"/><path d="m390 185 26-15v30z" fill="#eaeaea"/><path d="m390 185 26 15-26 15z" fill="#eaeaea"/><path d="m390 215 26-15v30z" fill="#15f"/><path d="m390 215 26 15-26 15z" fill="#eaeaea"/><path d="m390 245 26-15v30z" fill="#eaeaea"/><path d="m390 245 26 15-26 15z" fill="#eaeaea"/><path d="m390 275 26-15v30z" fill="#15f"/><path d="m390 275 26 15-26 15z" fill="#15f"/><path d="m390 305 26-15v30z" fill="#15f"/><path d="m390 305 26 15-26 15z" fill="#15f"/><path d="m390 335 26-15v30z" fill="#2a293c"/><path d="m390 335 26 15-26 15z" fill="#2a293c"/><path d="m390 365 26-15v30z" fill="#181823"/><path d="m390 365 26 15-26 15z" fill="#181823"/><path d="m416 140 26 15-26 15z" fill="#2a293c"/><path d="m416 170 26-15v30z" fill="#2a293c"/><path d="m416 170 26 15-26 15z" fill="#eaeaea"/><path d="m416 200 26-15v30z" fill="#eaeaea"/><path d="m416 200 26 15-26 15z" fill="#dc054b"/><path d="m416 230 26-15v30z" fill="#eaeaea"/><path d="m416 230 26 15-26 15z" fill="#dc054b"/><path d="m416 260 26-15v30z" fill="#dc054b"/><path d="m416 260 26 15-26 15z" fill="#dc054b"/><path d="m416 290 26-15v30z" fill="#dc054b"/><path d="m416 290 26 15-26 15z" fill="#2a293c"/><path d="m416 320 26-15v30z" fill="#2a293c"/><path d="m416 320 26 15-26 15z" fill="#2a293c"/><path d="m416 350 26-15v30z" fill="#181823"/><path d="m416 350 26 15-26 15z" fill="#181823"/><path d="m442 155 26 15-26 15z" fill="#2a293c"/><path d="m442 185 26-15v30z" fill="#2a293c"/><path d="m442 185 26 15-26 15z" fill="#eaeaea"/><path d="m442 215 26-15v30z" fill="#eaeaea"/><path d="m442 215 26 15-26 15z" fill="#eaeaea"/><path d="m442 245 26-15v30z" fill="#15f"/><path d="m442 245 26 15-26 15z" fill="#15f"/><path d="m442 275 26-15v30z" fill="#15f"/><path d="m442 275 26 15-26 15z" fill="#15f"/><path d="m442 305 26-15v30z" fill="#2a293c"/><path d="m442 305 26 15-26 15z" fill="#2a293c"/><path d="m442 335 26-15v30z" fill="#181823"/><path d="m442 335 26 15-26 15z" fill="#181823"/><path d="m468 170 26 15-26 15z" fill="#2a293c"/><path d="m468 200 26-15v30z" fill="#2a293c"/><path d="m468 200 26 15-26 15z" fill="#2a293c"/><path d="m468 230 26-15v30z" fill="#2a293c"/><path d="m468 230 26 15-26 15z" fill="#2a293c"/><path d="m468 260 26-15v30z" fill="#2a293c"/><path d="m468 260 26 15-26 15z" fill="#2a293c"/><path d="m468 290 26-15v30z" fill="#2a293c"/><path d="m468 290 26 15-26 15z" fill="#2a293c"/><path d="m468 320 26-15v30z" fill="#181823"/><path d="m468 320 26 15-26 15z" fill="#181823"/><path d="m494 185 26 15-26 15z" fill="#2a293c"/><path d="m494 215 26-15v30z" fill="#2a293c"/><path d="m494 215 26 15-26 15z" fill="#2a293c"/><path d="m494 245 26-15v30z" fill="#2a293c"/><path d="m494 245 26 15-26 15z" fill="#2a293c"/><path d="m494 275 26-15v30z" fill="#2a293c"/><path d="m494 275 26 15-26 15z" fill="#2a293c"/><path d="m494 305 26-15v30z" fill="#181823"/><path d="m494 305 26 15-26 15z" fill="#181823"/></svg>