
<svg version="1.1" xmlns="http://www.w3.org/2000/svg"  viewBox="0 0 50 100">
<rect x="0" y="0" width="50" height="100" />
<g>
<g stroke="#fff" stroke-linecap="square" style="transform: translate(4.5px, 76.5px)"><line stroke-width="1" x1="3" y1="3" x2="3" y2="3"></line><line stroke-width="4" x1="3" y1="8" x2="3" y2="8"></line><line stroke-width="1" x1="3" y1="13" x2="3" y2="13"></line><line stroke-width="1" x1="3" y1="18" x2="3" y2="18"></line><line stroke-width="1" x1="8" y1="3" x2="8" y2="3"></line><line stroke-width="4" x1="8" y1="8" x2="8" y2="8"></line><line stroke-width="1" x1="8" y1="13" x2="8" y2="13"></line><line stroke-width="1" x1="8" y1="18" x2="8" y2="18"></line><line stroke-width="4" x1="13" y1="3" x2="13" y2="3"></line><line stroke-width="1" x1="13" y1="8" x2="13" y2="8"></line><line stroke-width="1" x1="13" y1="13" x2="13" y2="13"></line><line stroke-width="1" x1="13" y1="18" x2="13" y2="18"></line><line stroke-width="1" x1="18" y1="3" x2="18" y2="3"></line><line stroke-width="4" x1="18" y1="8" x2="18" y2="8"></line><line stroke-width="1" x1="18" y1="13" x2="18" y2="13"></line><line stroke-width="1" x1="18" y1="18" x2="18" y2="18"></line><line stroke-width="1" x1="23" y1="3" x2="23" y2="3"></line><line stroke-width="1" x1="23" y1="8" x2="23" y2="8"></line><line stroke-width="4" x1="23" y1="13" x2="23" y2="13"></line><line stroke-width="1" x1="23" y1="18" x2="23" y2="18"></line><line stroke-width="1" x1="28" y1="3" x2="28" y2="3"></line><line stroke-width="1" x1="28" y1="8" x2="28" y2="8"></line><line stroke-width="4" x1="28" y1="13" x2="28" y2="13"></line><line stroke-width="1" x1="28" y1="18" x2="28" y2="18"></line><line stroke-width="1" x1="33" y1="3" x2="33" y2="3"></line><line stroke-width="1" x1="33" y1="8" x2="33" y2="8"></line><line stroke-width="1" x1="33" y1="13" x2="33" y2="13"></line><line stroke-width="4" x1="33" y1="18" x2="33" y2="18"></line><line stroke-width="1" x1="38" y1="3" x2="38" y2="3"></line><line stroke-width="1" x1="38" y1="8" x2="38" y2="8"></line><line stroke-width="4" x1="38" y1="13" x2="38" y2="13"></line><line stroke-width="1" x1="38" y1="18" x2="38" y2="18"></line></g>
<g stroke="#fff" stroke-linecap="square" style="transform: translate(4.5px, 52.5px)"><line stroke-width="4" x1="3" y1="3" x2="3" y2="3"></line><line stroke-width="4" x1="3" y1="8" x2="3" y2="8"></line><line stroke-width="1" x1="3" y1="13" x2="3" y2="13"></line><line stroke-width="4" x1="3" y1="18" x2="3" y2="18"></line><line stroke-width="1" x1="8" y1="3" x2="8" y2="3"></line><line stroke-width="4" x1="8" y1="8" x2="8" y2="8"></line><line stroke-width="1" x1="8" y1="13" x2="8" y2="13"></line><line stroke-width="1" x1="8" y1="18" x2="8" y2="18"></line><line stroke-width="1" x1="13" y1="3" x2="13" y2="3"></line><line stroke-width="4" x1="13" y1="8" x2="13" y2="8"></line><line stroke-width="4" x1="13" y1="13" x2="13" y2="13"></line><line stroke-width="4" x1="13" y1="18" x2="13" y2="18"></line><line stroke-width="1" x1="18" y1="3" x2="18" y2="3"></line><line stroke-width="4" x1="18" y1="8" x2="18" y2="8"></line><line stroke-width="4" x1="18" y1="13" x2="18" y2="13"></line><line stroke-width="1" x1="18" y1="18" x2="18" y2="18"></line><line stroke-width="4" x1="23" y1="3" x2="23" y2="3"></line><line stroke-width="1" x1="23" y1="8" x2="23" y2="8"></line><line stroke-width="1" x1="23" y1="13" x2="23" y2="13"></line><line stroke-width="4" x1="23" y1="18" x2="23" y2="18"></line><line stroke-width="1" x1="28" y1="3" x2="28" y2="3"></line><line stroke-width="1" x1="28" y1="8" x2="28" y2="8"></line><line stroke-width="1" x1="28" y1="13" x2="28" y2="13"></line><line stroke-width="1" x1="28" y1="18" x2="28" y2="18"></line><line stroke-width="1" x1="33" y1="3" x2="33" y2="3"></line><line stroke-width="1" x1="33" y1="8" x2="33" y2="8"></line><line stroke-width="4" x1="33" y1="13" x2="33" y2="13"></line><line stroke-width="4" x1="33" y1="18" x2="33" y2="18"></line><line stroke-width="1" x1="38" y1="3" x2="38" y2="3"></line><line stroke-width="1" x1="38" y1="8" x2="38" y2="8"></line><line stroke-width="4" x1="38" y1="13" x2="38" y2="13"></line><line stroke-width="1" x1="38" y1="18" x2="38" y2="18"></line></g>
<g stroke="#fff" stroke-linecap="square" style="transform: translate(4.5px, 28.5px)"><line stroke-width="4" x1="3" y1="3" x2="3" y2="3"></line><line stroke-width="4" x1="3" y1="8" x2="3" y2="8"></line><line stroke-width="4" x1="3" y1="13" x2="3" y2="13"></line><line stroke-width="4" x1="3" y1="18" x2="3" y2="18"></line><line stroke-width="4" x1="8" y1="3" x2="8" y2="3"></line><line stroke-width="4" x1="8" y1="8" x2="8" y2="8"></line><line stroke-width="1" x1="8" y1="13" x2="8" y2="13"></line><line stroke-width="1" x1="8" y1="18" x2="8" y2="18"></line><line stroke-width="1" x1="13" y1="3" x2="13" y2="3"></line><line stroke-width="4" x1="13" y1="8" x2="13" y2="8"></line><line stroke-width="4" x1="13" y1="13" x2="13" y2="13"></line><line stroke-width="4" x1="13" y1="18" x2="13" y2="18"></line><line stroke-width="1" x1="18" y1="3" x2="18" y2="3"></line><line stroke-width="4" x1="18" y1="8" x2="18" y2="8"></line><line stroke-width="4" x1="18" y1="13" x2="18" y2="13"></line><line stroke-width="1" x1="18" y1="18" x2="18" y2="18"></line><line stroke-width="4" x1="23" y1="3" x2="23" y2="3"></line><line stroke-width="1" x1="23" y1="8" x2="23" y2="8"></line><line stroke-width="4" x1="23" y1="13" x2="23" y2="13"></line><line stroke-width="4" x1="23" y1="18" x2="23" y2="18"></line><line stroke-width="4" x1="28" y1="3" x2="28" y2="3"></line><line stroke-width="1" x1="28" y1="8" x2="28" y2="8"></line><line stroke-width="1" x1="28" y1="13" x2="28" y2="13"></line><line stroke-width="1" x1="28" y1="18" x2="28" y2="18"></line><line stroke-width="1" x1="33" y1="3" x2="33" y2="3"></line><line stroke-width="4" x1="33" y1="8" x2="33" y2="8"></line><line stroke-width="4" x1="33" y1="13" x2="33" y2="13"></line><line stroke-width="4" x1="33" y1="18" x2="33" y2="18"></line><line stroke-width="1" x1="38" y1="3" x2="38" y2="3"></line><line stroke-width="4" x1="38" y1="8" x2="38" y2="8"></line><line stroke-width="4" x1="38" y1="13" x2="38" y2="13"></line><line stroke-width="1" x1="38" y1="18" x2="38" y2="18"></line></g>
<g stroke="#fff" stroke-linecap="square" style="transform: translate(4.5px, 4.5px)"><line stroke-width="4" x1="3" y1="3" x2="3" y2="3"></line><line stroke-width="1" x1="3" y1="8" x2="3" y2="8"></line><line stroke-width="1" x1="3" y1="13" x2="3" y2="13"></line><line stroke-width="4" x1="3" y1="18" x2="3" y2="18"></line><line stroke-width="4" x1="8" y1="3" x2="8" y2="3"></line><line stroke-width="4" x1="8" y1="8" x2="8" y2="8"></line><line stroke-width="1" x1="8" y1="13" x2="8" y2="13"></line><line stroke-width="1" x1="8" y1="18" x2="8" y2="18"></line><line stroke-width="1" x1="13" y1="3" x2="13" y2="3"></line><line stroke-width="4" x1="13" y1="8" x2="13" y2="8"></line><line stroke-width="1" x1="13" y1="13" x2="13" y2="13"></line><line stroke-width="4" x1="13" y1="18" x2="13" y2="18"></line><line stroke-width="4" x1="18" y1="3" x2="18" y2="3"></line><line stroke-width="1" x1="18" y1="8" x2="18" y2="8"></line><line stroke-width="1" x1="18" y1="13" x2="18" y2="13"></line><line stroke-width="4" x1="18" y1="18" x2="18" y2="18"></line><line stroke-width="1" x1="23" y1="3" x2="23" y2="3"></line><line stroke-width="4" x1="23" y1="8" x2="23" y2="8"></line><line stroke-width="4" x1="23" y1="13" x2="23" y2="13"></line><line stroke-width="1" x1="23" y1="18" x2="23" y2="18"></line><line stroke-width="4" x1="28" y1="3" x2="28" y2="3"></line><line stroke-width="4" x1="28" y1="8" x2="28" y2="8"></line><line stroke-width="1" x1="28" y1="13" x2="28" y2="13"></line><line stroke-width="4" x1="28" y1="18" x2="28" y2="18"></line><line stroke-width="1" x1="33" y1="3" x2="33" y2="3"></line><line stroke-width="4" x1="33" y1="8" x2="33" y2="8"></line><line stroke-width="4" x1="33" y1="13" x2="33" y2="13"></line><line stroke-width="1" x1="33" y1="18" x2="33" y2="18"></line><line stroke-width="4" x1="38" y1="3" x2="38" y2="3"></line><line stroke-width="4" x1="38" y1="8" x2="38" y2="8"></line><line stroke-width="1" x1="38" y1="13" x2="38" y2="13"></line><line stroke-width="1" x1="38" y1="18" x2="38" y2="18"></line></g>
</g>
</svg>